<svg width="97" height="97" viewBox="0 0 97 97" fill="none" xmlns="http://www.w3.org/2000/svg">
<g clip-path="url(#clip0)">
<path d="M97.0001 93.7666H6.10352e-05V96.9999H97.0001V93.7666Z" fill="#4A25AA"/>
<path d="M6.46673 90.5335H22.6334C23.5262 90.5335 24.2501 89.8097 24.2501 88.9169V59.8169C24.2501 58.9241 23.5262 58.2002 22.6334 58.2002H6.46673C5.57393 58.2002 4.85007 58.9241 4.85007 59.8169V88.9169C4.85007 89.8097 5.57393 90.5335 6.46673 90.5335ZM8.0834 61.4335H21.0167V87.3002H8.0834V61.4335Z" fill="#4A25AA"/>
<path d="M51.7334 90.5331H67.9001C68.7929 90.5331 69.5167 89.8093 69.5167 88.9165V40.4165C69.5167 39.5237 68.7929 38.7998 67.9001 38.7998H51.7334C50.8406 38.7998 50.1167 39.5237 50.1167 40.4165V88.9165C50.1167 89.8093 50.8406 90.5331 51.7334 90.5331ZM53.3501 42.0331H66.2834V87.2998H53.3501V42.0331Z" fill="#4A25AA"/>
<path d="M29.1001 90.5332H45.2667C46.1595 90.5332 46.8834 89.8094 46.8834 88.9166V21.0166C46.8834 20.1238 46.1595 19.3999 45.2667 19.3999H29.1001C28.2073 19.3999 27.4834 20.1238 27.4834 21.0166V88.9166C27.4834 89.8094 28.2073 90.5332 29.1001 90.5332ZM30.7167 22.6332H43.6501V87.2999H30.7167V22.6332Z" fill="#4A25AA"/>
<path d="M74.3667 90.5333H90.5334C91.4262 90.5333 92.1501 89.8095 92.1501 88.9167V1.61667C92.1501 0.723862 91.4262 0 90.5334 0H74.3667C73.4739 0 72.7501 0.723862 72.7501 1.61667V88.9167C72.7501 89.8095 73.4739 90.5333 74.3667 90.5333ZM75.9834 3.23333H88.9167V87.3H75.9834V3.23333Z" fill="#4A25AA"/>
</g>
<defs>
<clipPath id="clip0">
<rect width="97" height="97" fill="white"/>
</clipPath>
</defs>
</svg>
