<svg width="119" height="97" viewBox="0 0 119 97" fill="none" xmlns="http://www.w3.org/2000/svg">
<path d="M4.80814 0.000204531C3.53296 0.000204531 2.31001 0.511185 1.40832 1.42073C0.506625 2.33028 6.10352e-05 3.5639 6.10352e-05 4.85019C6.10352e-05 6.13649 0.506625 7.3701 1.40832 8.27965C2.31001 9.1892 3.53296 9.70018 4.80814 9.70018H15.4821L28.0985 60.6251C29.1707 64.9416 33.0027 67.9001 37.4117 67.9001H97.3685C101.71 67.9001 105.398 64.9901 106.538 60.7706L119 14.5502H108.932L97.3637 58.2001H37.4069L24.7953 7.27519C24.2744 5.18595 23.0734 3.3335 21.3849 2.01447C19.6963 0.695447 17.6177 -0.0138367 15.4821 0.000204531H4.80814ZM91.3536 67.9001C83.4443 67.9001 76.9294 74.4718 76.9294 82.45C76.9294 90.4283 83.4443 97 91.3536 97C99.2629 97 105.778 90.4283 105.778 82.45C105.778 74.4718 99.2629 67.9001 91.3536 67.9001ZM48.0809 67.9001C40.1716 67.9001 33.6566 74.4718 33.6566 82.45C33.6566 90.4283 40.1716 97 48.0809 97C55.9902 97 62.5051 90.4283 62.5051 82.45C62.5051 74.4718 55.9902 67.9001 48.0809 67.9001ZM62.5051 0.000204531V24.2502H48.0809L67.3132 43.6501L86.5455 24.2502H72.1213V0.000204531H62.5051ZM48.0809 77.6C50.7926 77.6 52.8889 79.7146 52.8889 82.45C52.8889 85.1854 50.7926 87.3 48.0809 87.3C45.3691 87.3 43.2728 85.1854 43.2728 82.45C43.2728 79.7146 45.3691 77.6 48.0809 77.6ZM91.3536 77.6C94.0653 77.6 96.1617 79.7146 96.1617 82.45C96.1617 85.1854 94.0653 87.3 91.3536 87.3C88.6418 87.3 86.5455 85.1854 86.5455 82.45C86.5455 79.7146 88.6418 77.6 91.3536 77.6Z" fill="#D6001C"/>
</svg>
