<svg width="99" height="99" viewBox="0 0 99 99" fill="none" xmlns="http://www.w3.org/2000/svg">
<path d="M74.25 86.625V80.4375H80.4375V86.625H74.25Z" fill="#FF6900"/>
<path d="M55.6875 74.25V68.0625H61.875V74.25H55.6875Z" fill="#FF6900"/>
<path d="M55.6875 92.8125H68.0625V86.625H61.875V80.4375H55.6875V92.8125Z" fill="#FF6900"/>
<path d="M80.4375 80.4375V68.0625H86.625V80.4375H80.4375Z" fill="#FF6900"/>
<path d="M86.625 80.4375H92.8125V92.8125H80.4375V86.625H86.625V80.4375Z" fill="#FF6900"/>
<path d="M80.4375 61.875V55.6875H92.8125V68.0625H86.625V61.875H80.4375Z" fill="#FF6900"/>
<path d="M74.25 61.875H68.0625V74.25H61.875V80.4375H74.25V61.875Z" fill="#FF6900"/>
<path d="M55.6875 61.875V55.6875H68.0625V61.875H55.6875Z" fill="#FF6900"/>
<path d="M18.5625 68.0625H30.9375V80.4375H18.5625V68.0625Z" fill="#FF6900"/>
<path d="M43.3125 92.8125H6.1875V55.6875H43.3125V92.8125ZM12.375 86.625H37.125V61.875H12.375V86.625Z" fill="#FF6900"/>
<path d="M68.0625 18.5625H80.4375V30.9375H68.0625V18.5625Z" fill="#FF6900"/>
<path d="M92.8125 43.3125H55.6875V6.1875H92.8125V43.3125ZM61.875 37.125H86.625V12.375H61.875V37.125Z" fill="#FF6900"/>
<path d="M18.5625 18.5625H30.9375V30.9375H18.5625V18.5625Z" fill="#FF6900"/>
<path d="M43.3125 43.3125H6.1875V6.1875H43.3125V43.3125ZM12.375 37.125H37.125V12.375H12.375V37.125Z" fill="#FF6900"/>
</svg>
