<svg width="109" height="77" viewBox="0 0 109 77" fill="none" xmlns="http://www.w3.org/2000/svg">
<path d="M16.0626 0.0625C11.9849 0.0625 8.07417 1.68236 5.19079 4.56573C2.30742 7.4491 0.687561 11.3598 0.687561 15.4375V23.125H108.313V15.4375C108.313 11.3598 106.693 7.4491 103.809 4.56573C100.926 1.68236 97.0153 0.0625 92.9376 0.0625H16.0626Z" fill="#0092CB"/>
<path d="M0.687561 61.5625V30.8125H108.313V61.5625C108.313 65.6402 106.693 69.5509 103.809 72.4343C100.926 75.3176 97.0153 76.9375 92.9376 76.9375H16.0626C11.9849 76.9375 8.07417 75.3176 5.19079 72.4343C2.30742 69.5509 0.687561 65.6402 0.687561 61.5625ZM73.7188 53.875C72.6994 53.875 71.7217 54.28 71.0009 55.0008C70.28 55.7216 69.8751 56.6993 69.8751 57.7188C69.8751 58.7382 70.28 59.7159 71.0009 60.4367C71.7217 61.1575 72.6994 61.5625 73.7188 61.5625H89.0938C90.1132 61.5625 91.0909 61.1575 91.8118 60.4367C92.5326 59.7159 92.9376 58.7382 92.9376 57.7188C92.9376 56.6993 92.5326 55.7216 91.8118 55.0008C91.0909 54.28 90.1132 53.875 89.0938 53.875H73.7188Z" fill="#0092CB"/>
</svg>
