<svg width="218" height="69" viewBox="0 0 218 69" fill="none" xmlns="http://www.w3.org/2000/svg">
<g clip-path="url(#clip0)">
<path d="M130.283 67.2285L130.336 66.8782L131.048 66.9824L131.124 66.4901C131.015 66.4759 130.906 66.457 130.797 66.4428L131.257 62.5756C131.4 62.5946 131.543 62.6183 131.68 62.6372L131.785 61.9367L131.756 62.1118L131.291 62.0408L131.343 61.6905L131.813 61.7615L131.894 61.2361C127.39 60.5545 122.805 59.9297 118.253 59.3759C118.049 59.3523 97.7648 57.0566 79.7475 56.2519C57.7866 55.2721 31.3735 56.9667 3.364 61.1604L3.44478 61.6858L3.91517 61.6148L3.96743 61.9651L3.49704 62.0361L3.46854 61.8609L3.57307 62.5615C4.42357 62.4337 5.26932 62.3153 6.11507 62.1923L6.69949 66.0357C5.58766 66.1966 4.47583 66.3528 3.35925 66.5185L3.57307 67.9243C31.4923 63.7448 57.8151 62.055 79.681 63.0301C97.7316 63.8347 117.887 66.1209 118.087 66.1446C122.363 66.67 126.682 67.2569 130.915 67.8959L131.001 67.3326L130.283 67.2285ZM4.8892 61.8278L4.83694 61.4775L5.77296 61.3403L5.82523 61.6905L4.8892 61.8278ZM3.48754 67.3658L3.43528 67.0155L3.90566 66.9445L3.95793 67.2948L3.48754 67.3658ZM4.89871 67.1575L4.84644 66.8072L5.79197 66.67L5.84424 67.0202L4.89871 67.1575ZM66.168 56.5075V56.8625L65.2225 56.8673V56.5123L66.168 56.5075ZM64.2722 56.5217L64.277 56.8767L63.3314 56.8862L63.3267 56.5312L64.2722 56.5217ZM60.4901 56.5738L60.4949 56.9288L59.5493 56.9477L59.5398 56.5927L60.4901 56.5738ZM58.599 56.6164L58.6086 56.9714L57.663 56.9951L57.6535 56.6401L58.599 56.6164ZM54.8217 56.7347L54.8359 57.0897L53.8952 57.1229L53.8809 56.7679L54.8217 56.7347ZM52.9306 56.8057L52.9449 57.1607L51.9994 57.1986L51.9851 56.8436L52.9306 56.8057ZM51.0396 56.8862L51.0538 57.2412L50.1083 57.2838L50.0893 56.9288L51.0396 56.8862ZM49.1438 56.9809L49.1628 57.3359L48.2172 57.3832L48.1982 57.0282L49.1438 56.9809ZM47.2527 57.0803L47.2717 57.4353L46.3262 57.4873L46.3072 57.1323L47.2527 57.0803ZM45.3569 57.1939L45.3806 57.5489L44.4351 57.6057L44.4114 57.2507L45.3569 57.1939ZM43.4658 57.3122L43.4896 57.6672L42.5441 57.7287L42.5203 57.3737L43.4658 57.3122ZM41.5748 57.44L41.5985 57.795L40.653 57.8613L40.6292 57.5063L41.5748 57.44ZM39.6837 57.5773L39.7122 57.9323L38.7667 58.0033L38.7382 57.6483L39.6837 57.5773ZM37.7927 57.7193L37.8212 58.0743L36.8756 58.15L36.8471 57.795L37.7927 57.7193ZM35.9016 57.8755L35.9301 58.2305L34.9846 58.3109L34.9561 57.9559L35.9016 57.8755ZM34.0153 58.0364L34.0486 58.3914L33.103 58.4766L33.0698 58.1216L34.0153 58.0364ZM30.2379 58.3819L30.2712 58.7369L29.3304 58.8269L29.2972 58.4719L30.2379 58.3819ZM28.3516 58.5665L28.3849 58.9215L27.4441 59.0162L27.4061 58.6612L28.3516 58.5665ZM24.579 58.9547L24.617 59.3097L23.6762 59.4138L23.6382 59.0588L24.579 58.9547ZM22.6975 59.1629L22.7355 59.5179L21.7947 59.6221L21.7567 59.2671L22.6975 59.1629ZM20.8112 59.3759L20.8539 59.7309L19.9131 59.8398L19.8704 59.4848L20.8112 59.3759ZM18.9296 59.5984L18.9724 59.9534L18.0316 60.067L17.9888 59.7167L18.9296 59.5984ZM17.048 59.8256L17.0908 60.1759L16.1548 60.2942L16.112 59.9439L17.048 59.8256ZM15.1665 60.0623L15.2092 60.4125L14.2685 60.5309L14.221 60.1806L15.1665 60.0623ZM13.2897 60.3037L13.3372 60.6539L12.3964 60.777L12.3489 60.4267L13.2897 60.3037ZM11.4081 60.5498L11.4556 60.9001L10.5149 61.0279L10.4674 60.6776L11.4081 60.5498ZM9.53132 60.8101L9.57884 61.1604L8.64281 61.2929L8.5953 60.9427L9.53132 60.8101ZM7.65452 61.0705L7.70679 61.4207L6.77076 61.5533L6.71849 61.203L7.65452 61.0705ZM6.78501 66.883L6.73275 66.5327L7.67828 66.4002L7.73054 66.7504L6.78501 66.883ZM7.52148 61.9935C9.09419 61.771 10.6622 61.558 12.2206 61.3497L12.8098 65.2026C11.2466 65.4062 9.68337 65.6192 8.1059 65.8416L7.52148 61.9935ZM8.67132 66.6132L8.62381 66.2629L9.56933 66.1304L9.61685 66.4806L8.67132 66.6132ZM10.5624 66.3528L10.5149 66.0026L11.4604 65.8748L11.5079 66.225L10.5624 66.3528ZM12.4534 66.102L12.4059 65.7517L13.3515 65.6286L13.399 65.9789L12.4534 66.102ZM13.6318 61.1557C15.1617 60.9569 16.6822 60.7675 18.1979 60.5829L18.7871 64.4406C17.2714 64.6204 15.7462 64.8098 14.221 65.0086L13.6318 61.1557ZM14.3445 65.8558L14.297 65.5056L15.2425 65.3825L15.2853 65.7328L14.3445 65.8558ZM16.2355 65.6144L16.1928 65.2642L17.1383 65.1458L17.1811 65.4961L16.2355 65.6144ZM18.1314 65.3825L18.0886 65.0322L19.0341 64.9186L19.0769 65.2736L18.1314 65.3825ZM20.0224 65.1553L19.9797 64.8003L20.9299 64.6914L20.9727 65.0464L20.0224 65.1553ZM21.9182 64.9376L21.8802 64.5826L22.8305 64.4737L22.8685 64.8287L21.9182 64.9376ZM23.814 64.7246L23.776 64.3743L24.7263 64.2702L24.7643 64.6252L23.814 64.7246ZM20.2077 64.2796L19.6185 60.4125C21.2008 60.2279 22.7782 60.0481 24.3462 59.8777L24.9354 63.7495C23.3674 63.9199 21.7899 64.0998 20.2077 64.2796ZM25.5245 58.8553L26.4653 58.7559L26.5033 59.1109L25.5626 59.2103L25.5245 58.8553ZM25.7098 64.521L25.6718 64.166L26.6221 64.0666L26.6601 64.4216L25.7098 64.521ZM27.6104 64.327L27.5724 63.972L28.5227 63.8773L28.5559 64.2323L27.6104 64.327ZM29.5062 64.1376L29.473 63.7826L30.4232 63.6927L30.4565 64.0477L29.5062 64.1376ZM26.356 63.6075L25.7669 59.7357C27.3158 59.5747 28.8553 59.4185 30.3852 59.2718L30.9791 63.1531C29.4444 63.2951 27.905 63.4466 26.356 63.6075ZM31.1835 58.292L32.129 58.2068L32.1623 58.5618L31.2215 58.647L31.1835 58.292ZM31.4068 63.953L31.3735 63.598L32.3238 63.5081L32.3571 63.8631L31.4068 63.953ZM31.8059 59.1393C33.3834 58.9925 34.9561 58.8553 36.5145 58.7322L37.1085 62.623C35.55 62.7461 33.9773 62.8833 32.3998 63.0253L31.8059 59.1393ZM33.3073 63.7826L33.2741 63.4276L34.2244 63.3425L34.2576 63.6975L33.3073 63.7826ZM35.2079 63.617L35.1794 63.262L36.1297 63.1815L36.1582 63.5365L35.2079 63.617ZM37.1085 63.4608L37.0799 63.1058L38.0302 63.0301L38.0587 63.385L37.1085 63.4608ZM37.94 58.6139C39.4747 58.4955 40.9951 58.3819 42.5108 58.2825L43.1047 62.1781C41.494 62.2822 39.8738 62.4005 38.2393 62.5283L38.5291 62.4857L37.94 58.6139ZM39.009 63.3093L38.9805 62.9543L39.9308 62.8833L39.9545 63.2383L39.009 63.3093ZM40.9096 63.1721L40.8858 62.8171L41.8361 62.7508L41.8599 63.1058L40.9096 63.1721ZM42.8149 63.0395L42.7911 62.6845L43.7414 62.623L43.7652 62.978L42.8149 63.0395ZM43.9362 58.1784C45.4757 58.079 47.0009 57.9891 48.5166 57.9086L49.1152 61.8183C47.5996 61.8941 46.0696 61.984 44.5349 62.0787L43.9362 58.1784ZM44.7155 62.9164L44.6917 62.5615L45.6467 62.5047L45.6657 62.8597L44.7155 62.9164ZM46.6208 62.8028L46.6018 62.4478L47.5568 62.3958L47.5758 62.7508L46.6208 62.8028ZM48.5261 62.6987L48.5071 62.3437L49.4621 62.2964L49.4811 62.6514L48.5261 62.6987ZM50.4314 62.5993L50.4124 62.2443L51.3674 62.2017L51.3817 62.5567L50.4314 62.5993ZM52.3367 62.5141L52.3224 62.1591L53.2775 62.1213L53.2917 62.4763L52.3367 62.5141ZM54.242 62.4384L54.2278 62.0834L55.178 62.0503L55.1923 62.4053L54.242 62.4384ZM50.5454 61.7568L49.9467 57.8423C51.529 57.7666 53.0922 57.6956 54.6459 57.6388L55.2446 61.558C53.6908 61.6195 52.1276 61.6811 50.5454 61.7568ZM55.7672 56.7016L56.7127 56.6732L56.7222 57.0282L55.7767 57.0566L55.7672 56.7016ZM60.3238 57.4826L60.6231 61.4207C59.3213 61.4444 58.0051 61.4775 56.6795 61.5201L56.0808 57.6009C57.511 57.5489 58.9221 57.511 60.3238 57.4826ZM56.1426 62.3721L56.1331 62.0171L57.0834 61.9887L57.0929 62.3437L56.1426 62.3721ZM58.0431 62.3153L58.0336 61.9603L58.9839 61.9367L58.9934 62.2917L58.0431 62.3153ZM59.9437 62.268L59.9342 61.913L60.8845 61.8941L60.8892 62.2491L59.9437 62.268ZM61.4356 56.5549L62.3812 56.5407L62.3859 56.8957L61.4404 56.9099L61.4356 56.5549ZM66.2631 57.4069L66.5624 61.345C65.0752 61.3497 63.569 61.3592 62.0486 61.3876L61.7492 57.4495C63.2697 57.4258 64.7759 57.4116 66.2631 57.4069ZM61.8443 62.2349L61.8395 61.8799L62.7898 61.8657L62.7945 62.2207L61.8443 62.2349ZM63.7448 62.2112L63.7401 61.8562L64.6951 61.8467L64.6998 62.2017L63.7448 62.2112ZM65.6501 62.197V61.842L66.6052 61.8373V62.1923L65.6501 62.197ZM129.466 61.4113L130.402 61.5485L130.35 61.8988L129.414 61.7615L129.466 61.4113ZM127.589 61.1415L128.53 61.274L128.478 61.6243L127.542 61.4917L127.589 61.1415ZM123.836 60.6255L124.777 60.7533L124.729 61.1036L123.788 60.9758L123.836 60.6255ZM121.954 60.3747L122.895 60.4977L122.847 60.848L121.907 60.7249L121.954 60.3747ZM121.954 61.274C123.057 61.416 124.154 61.5627 125.256 61.7142L124.929 65.605C123.831 65.4535 122.729 65.3068 121.626 65.1648L121.954 61.274ZM120.077 60.138L121.018 60.2563L120.971 60.6066L120.03 60.4883L120.077 60.138ZM118.196 59.9061L119.137 60.0197L119.094 60.3699L118.153 60.2563L118.196 59.9061ZM114.414 59.4943L115.359 59.5937L115.321 59.9487L114.376 59.8493L114.414 59.4943ZM112.523 59.3002L113.468 59.3949L113.43 59.7499L112.485 59.6552L112.523 59.3002ZM115.488 60.5025L115.16 64.4027C114.138 64.2938 112.893 64.166 111.463 64.024L111.791 60.1238C113.25 60.2658 114.499 60.3983 115.488 60.5025ZM108.75 58.9263L109.696 59.0162L109.662 59.3712L108.717 59.2813L108.75 58.9263ZM106.859 58.7464L107.805 58.8363L107.771 59.1913L106.826 59.1014L106.859 58.7464ZM106.64 59.6221C107.976 59.7451 109.225 59.8682 110.375 59.9818L110.047 63.882C108.893 63.7685 107.643 63.6501 106.313 63.5271L106.64 59.6221ZM104.973 58.5713L105.918 58.6565L105.885 59.0115L104.939 58.9263L104.973 58.5713ZM103.082 58.4056L104.027 58.4908L103.994 58.8458L103.048 58.7606L103.082 58.4056ZM99.3043 58.079L100.25 58.1595L100.221 58.5145L99.2758 58.434L99.3043 58.079ZM97.4132 57.9228L98.3588 57.9985L98.3303 58.3535L97.3847 58.2778L97.4132 57.9228ZM93.6311 57.6293L94.5767 57.7003L94.5481 58.0553L93.6026 57.9843L93.6311 57.6293ZM91.7401 57.4921L92.6856 57.5583L92.6571 57.9133L91.7116 57.8471L91.7401 57.4921ZM91.3457 58.3535C92.6001 58.4435 93.8402 58.5334 95.0613 58.6281L94.7335 62.5378C93.5123 62.4431 92.2675 62.3532 91.0131 62.268L91.3457 58.3535ZM89.849 57.3595L90.7945 57.4258L90.7708 57.7808L89.8253 57.7145L89.849 57.3595ZM87.958 57.2365L88.9035 57.298L88.8797 57.653L87.9342 57.5915L87.958 57.2365ZM86.0621 57.1181L87.0124 57.1749L86.9887 57.5299L86.0384 57.4731L86.0621 57.1181ZM84.1663 57.0093L85.1166 57.0613L85.0976 57.4163L84.1521 57.3643L84.1663 57.0093ZM82.2705 56.9051L83.2161 56.9525L83.1971 57.3075L82.2515 57.2601L82.2705 56.9051ZM80.3795 56.8152L81.325 56.8625L81.306 57.2175L80.3605 57.1702L80.3795 56.8152ZM76.5926 56.6637L77.5381 56.6969L77.5239 57.0519L76.5783 57.0187L76.5926 56.6637ZM74.6968 56.6069L75.6423 56.6353L75.6328 56.9903L74.6873 56.9619L74.6968 56.6069ZM70.9099 56.5312L71.8555 56.5454L71.8507 56.9004L70.9052 56.8862L70.9099 56.5312ZM69.0141 56.517L69.9596 56.5265L69.9549 56.8815L69.0094 56.872L69.0141 56.517ZM67.1183 56.5075H68.0638V56.8625H67.1183V56.5075ZM68.5105 62.197L67.5554 62.1923V61.8373L68.5105 61.842V62.197ZM70.4205 62.2112L69.4655 62.2017L69.4703 61.8467L70.4253 61.8562L70.4205 62.2112ZM72.3258 62.2396L71.3708 62.2254L71.3756 61.8704L72.3306 61.8846L72.3258 62.2396ZM67.9926 61.3497L67.6932 57.4069C69.2184 57.4116 70.7246 57.4258 72.2118 57.4495L72.5111 61.3971C71.024 61.3687 69.5178 61.3545 67.9926 61.3497ZM72.8057 56.5643L73.7513 56.5833L73.7418 56.9383L72.7962 56.9193L72.8057 56.5643ZM74.2312 62.2775L73.2761 62.2538L73.2856 61.8988L74.2407 61.9225L74.2312 62.2775ZM76.1365 62.3343L75.1814 62.3059L75.1909 61.9509L76.146 61.9793L76.1365 62.3343ZM78.0418 62.3958L77.0867 62.3627L77.101 62.0077L78.056 62.0408L78.0418 62.3958ZM73.9461 61.4255L73.6467 57.4779C75.1767 57.511 76.6829 57.5583 78.1748 57.6151L78.4742 61.5675C76.9822 61.5059 75.4713 61.4633 73.9461 61.4255ZM78.4884 56.73L79.4339 56.7679L79.4197 57.1229L78.4742 57.085L78.4884 56.73ZM79.9471 62.4763L78.9968 62.4336L79.0111 62.0787L79.9661 62.1213L79.9471 62.4763ZM81.8476 62.5709L80.8974 62.5236L80.9164 62.1686L81.8667 62.2159L81.8476 62.5709ZM83.753 62.6703L82.7979 62.6182L82.8169 62.2632L83.772 62.3153L83.753 62.6703ZM79.9043 61.6195L79.605 57.6672C79.6287 57.6672 79.6525 57.6672 79.6715 57.6719C81.1397 57.7382 82.6221 57.8139 84.1093 57.8944L84.4087 61.8515C82.9025 61.7663 81.3963 61.6905 79.9043 61.6195ZM85.663 62.7792L84.708 62.7224L84.727 62.3674L85.682 62.4242L85.663 62.7792ZM87.5683 62.8975L86.6181 62.836L86.6418 62.481L87.5968 62.5425L87.5683 62.8975ZM89.4736 63.0206L88.5234 62.959L88.5471 62.604L89.5022 62.6656L89.4736 63.0206ZM89.5924 62.1733C88.3476 62.0881 87.0979 62.0077 85.8436 61.9367L85.5442 57.9796C87.0077 58.0648 88.4711 58.1595 89.9203 58.2589L89.5924 62.1733ZM91.3742 63.1484L90.4239 63.0821L90.4477 62.7271L91.398 62.7934L91.3742 63.1484ZM93.2795 63.2904L92.3292 63.2194L92.353 62.8644L93.3033 62.9354L93.2795 63.2904ZM95.1801 63.4324L94.2298 63.3614L94.2583 63.0064L95.2086 63.0774L95.1801 63.4324ZM95.5222 57.7761L96.4677 57.8518L96.4392 58.2068L95.4937 58.1311L95.5222 57.7761ZM97.0854 63.5791L96.1351 63.5034L96.1636 63.1484L97.1139 63.2241L97.0854 63.5791ZM98.986 63.7353L98.0357 63.6548L98.0642 63.2998L99.0145 63.3803L98.986 63.7353ZM96.1541 62.6514L96.482 58.7417C97.7316 58.8411 98.9527 58.9405 100.145 59.0399L99.8175 62.9496C98.6249 62.8502 97.4037 62.7508 96.1541 62.6514ZM100.887 63.8962L99.9362 63.8158L99.9647 63.4608L100.915 63.5413L100.887 63.8962ZM101.191 58.2399L102.136 58.3204L102.103 58.6754L101.157 58.5949L101.191 58.2399ZM102.792 64.0619L101.842 63.9767L101.875 63.6217L102.825 63.7069L102.792 64.0619ZM104.692 64.2323L103.742 64.1471L103.775 63.7921L104.726 63.8773L104.692 64.2323ZM104.897 63.3945C103.728 63.2856 102.502 63.1768 101.238 63.0679L101.566 59.1629C102.835 59.2718 104.056 59.3807 105.225 59.4895L104.897 63.3945ZM106.593 64.4074L105.643 64.3175L105.676 63.9625L106.626 64.0524L106.593 64.4074ZM108.494 64.5873L107.543 64.4974L107.576 64.1424L108.527 64.2323L108.494 64.5873ZM110.394 64.7719L109.468 64.682L109.458 64.5021L109.501 64.327L110.427 64.4169L110.394 64.7719ZM110.636 59.1109L111.582 59.2055L111.544 59.5605L110.598 59.4659L110.636 59.1109ZM112.295 64.9612L111.344 64.8666L111.382 64.5116L112.333 64.6062L112.295 64.9612ZM114.195 65.16L113.245 65.0606L113.283 64.7056L114.233 64.805L114.195 65.16ZM116.096 65.3588L115.145 65.2594L115.183 64.9044L116.134 65.0038L116.096 65.3588ZM116.3 59.6978L117.246 59.8019L117.208 60.1569L116.262 60.0528L116.3 59.6978ZM117.996 65.5671L117.046 65.463L117.084 65.108L118.034 65.2121L117.996 65.5671ZM119.887 65.799L118.942 65.6807L118.985 65.3304L119.93 65.4488L119.887 65.799ZM120.215 64.9849C119.56 64.8997 118.904 64.8192 118.248 64.7388C118.215 64.734 117.626 64.6678 116.585 64.5542L116.913 60.6539C117.645 60.7344 118.058 60.7817 118.082 60.7817C118.899 60.8811 119.721 60.9853 120.543 61.0894L120.215 64.9849ZM121.778 66.0452L120.833 65.9221L120.88 65.5718L121.826 65.6949L121.778 66.0452ZM123.674 66.2913L122.729 66.1635L122.776 65.8132L123.722 65.941L123.674 66.2913ZM125.561 66.5516L124.615 66.4238L124.663 66.0736L125.608 66.2014L125.561 66.5516ZM125.713 60.8811L126.653 61.0089L126.606 61.3592L125.67 61.2314L125.713 60.8811ZM127.452 66.8167L126.506 66.6842L126.554 66.3339L127.499 66.4664L127.452 66.8167ZM129.338 67.0865L128.392 66.9492L128.445 66.599L129.39 66.7362L129.338 67.0865ZM129.381 66.2345C128.373 66.0878 127.361 65.941 126.345 65.799L126.672 61.9083C127.732 62.055 128.787 62.2065 129.842 62.3627L129.381 66.2345Z" fill="white"/>
<path d="M139.14 64.9755L139.121 65.1269C139.04 65.7422 138.822 66.3008 138.399 66.7031C137.938 67.1622 137.287 67.3421 136.622 67.2664C135.957 67.1906 135.353 66.8735 135.011 66.3292C134.678 65.8369 134.598 65.2405 134.65 64.6299C134.731 64.0004 134.949 63.4703 135.377 63.0537C135.828 62.5993 136.498 62.4147 137.154 62.4905C137.833 62.5662 138.423 62.907 138.765 63.4277C138.831 63.5318 138.888 63.6454 138.936 63.7637L138.095 64.0383C138.066 63.9815 138.047 63.9294 138.014 63.8726C137.819 63.5413 137.453 63.3377 137.059 63.3046C136.665 63.2525 136.261 63.3709 135.999 63.6501C135.733 63.9294 135.619 64.3317 135.567 64.7293C135.529 65.1316 135.553 65.5482 135.748 65.8795C135.942 66.2108 136.308 66.4144 136.707 66.4522C137.097 66.4996 137.496 66.386 137.762 66.1067C137.909 65.9552 138.009 65.7612 138.081 65.5529L137.011 65.4346L137.087 64.7482L139.14 64.9755Z" fill="#E6E7EB"/>
<path d="M141.929 63.9389L141.839 64.9329L143.597 65.0891L143.521 65.9553L141.763 65.7991L141.673 66.7931L143.815 66.9824L143.739 67.8486L140.727 67.5788L141.14 62.9827L144.153 63.2525L144.077 64.1187L141.929 63.9389Z" fill="#E6E7EB"/>
<path d="M148.529 65.037C148.429 64.7956 148.348 64.6299 148.139 64.4832C147.997 64.3838 147.821 64.2891 147.607 64.2749C147.388 64.2513 147.179 64.2844 147.037 64.3601C146.871 64.4453 146.78 64.5826 146.771 64.7246C146.766 64.8051 146.79 64.8855 146.842 64.9471C146.918 65.0417 147.122 65.1411 147.35 65.2311L148.134 65.5245C148.534 65.6807 148.762 65.818 148.952 66.0263C149.208 66.3103 149.332 66.6605 149.303 67.0392C149.27 67.4415 149.009 67.8438 148.624 68.0616C148.253 68.2698 147.826 68.2935 147.336 68.2556C146.719 68.2083 146.205 68.0048 145.863 67.5172C145.659 67.2238 145.564 66.8972 145.516 66.5895L146.419 66.4239C146.438 66.6511 146.5 66.8593 146.604 67.0108C146.771 67.2806 147.122 67.4226 147.426 67.4462C147.669 67.4652 147.982 67.4178 148.158 67.3042C148.315 67.2048 148.363 67.0676 148.377 66.9398C148.386 66.8167 148.348 66.6984 148.263 66.6085C148.168 66.5091 148.044 66.4381 147.868 66.3718L147.027 66.0547C146.69 65.9316 146.386 65.7707 146.177 65.5577C145.92 65.3068 145.825 64.9518 145.849 64.6299C145.887 64.1235 146.253 63.7164 146.69 63.5555C147.037 63.4277 147.369 63.4277 147.678 63.4513C147.992 63.4845 148.334 63.5602 148.629 63.7495C149.004 63.9909 149.284 64.3791 149.427 64.8619L148.529 65.037Z" fill="#E6E7EB"/>
<path d="M154.558 64.8902L153.1 64.805L152.876 68.5444L152.002 68.4923L152.225 64.753L150.767 64.6678L150.819 63.7968L154.611 64.024L154.558 64.8902Z" fill="#E6E7EB"/>
<path d="M158.412 68.0805L156.521 68.0095L156.274 68.7195L155.371 68.6864L156.963 64.1282L158.269 64.1755L159.505 68.8426L158.607 68.8095L158.412 68.0805ZM156.549 63.2857C156.516 63.1058 156.544 62.8833 156.635 62.7461C156.725 62.6088 156.863 62.5094 157.02 62.4763C157.238 62.4289 157.461 62.4857 157.671 62.6041C157.827 62.6845 157.984 62.8171 158.146 62.8076C158.288 62.7981 158.317 62.694 158.283 62.5757L158.792 62.5946C158.825 62.7745 158.797 63.0064 158.706 63.1389C158.616 63.2715 158.478 63.3756 158.321 63.4087C158.103 63.4561 157.88 63.3993 157.671 63.2809C157.514 63.1957 157.357 63.0679 157.2 63.0774C157.053 63.0821 157.024 63.1863 157.058 63.3093L156.549 63.2857ZM158.193 67.2522L157.58 64.9707L156.806 67.2001L158.193 67.2522Z" fill="#E6E7EB"/>
<path d="M161.301 68.2225C160.935 67.7681 160.773 67.1859 160.783 66.5706C160.792 65.9553 160.963 65.3683 161.343 64.9234C161.757 64.4217 162.389 64.185 163.059 64.1945C163.729 64.2039 164.346 64.4595 164.755 64.966C165.14 65.4441 165.268 66.0121 165.273 66.6274C165.254 67.2664 165.097 67.8107 164.712 68.2651C164.28 68.7716 163.643 69.0082 162.997 68.9988C162.332 68.9893 161.695 68.729 161.301 68.2225ZM164.023 67.7302C164.261 67.4273 164.342 67.0155 164.346 66.6132C164.351 66.2109 164.28 65.7943 164.052 65.4867C163.824 65.1743 163.448 65.0133 163.049 65.0133C162.65 65.0039 162.26 65.1553 162.032 65.463C161.79 65.7612 161.714 66.1777 161.704 66.5801C161.704 66.9824 161.771 67.3942 162.004 67.7066C162.227 68.019 162.607 68.1799 163.006 68.1799C163.405 68.1894 163.786 68.0379 164.023 67.7302Z" fill="#E6E7EB"/>
<path d="M173.203 66.4712C173.212 66.8498 173.141 67.2427 172.97 67.6072C172.614 68.3361 171.849 68.8189 171.065 68.8426L169.478 68.8899L169.34 64.2796L170.927 64.2323C171.706 64.2086 172.504 64.6394 172.904 65.3541C173.098 65.7044 173.193 66.0925 173.203 66.4712ZM172.314 66.4948C172.3 66.2345 172.248 65.9836 172.139 65.7706C171.901 65.3304 171.421 65.0417 170.908 65.0512L170.252 65.0654L170.343 68.0521L170.998 68.0284C171.469 68.0095 171.972 67.7066 172.186 67.238C172.281 67.0108 172.329 66.7599 172.314 66.4948Z" fill="#E6E7EB"/>
<path d="M175.826 64.9139L175.873 65.9126L177.631 65.8274L177.674 66.6984L175.916 66.7836L175.963 67.7823L178.111 67.6782L178.154 68.5491L175.137 68.6958L174.913 64.0903L177.931 63.9436L177.973 64.8145L175.826 64.9139Z" fill="#E6E7EB"/>
<path d="M186.497 66.6652C186.431 66.9066 186.326 67.1528 186.165 67.3752C185.775 67.9148 185.157 68.2036 184.516 68.2462C183.836 68.2935 183.181 68.0616 182.763 67.6119C182.345 67.1717 182.145 66.6132 182.102 66.0073C182.059 65.373 182.183 64.8003 182.53 64.3223C182.9 63.7874 183.509 63.5034 184.179 63.4561C184.844 63.4087 185.485 63.617 185.932 64.0856C186.155 64.327 186.312 64.6063 186.412 64.8761L185.523 65.0938C185.461 64.9376 185.385 64.7909 185.276 64.6678C185.024 64.3791 184.625 64.2418 184.236 64.2702C183.836 64.2986 183.466 64.4832 183.262 64.8051C183.043 65.1222 183.005 65.5435 183.024 65.9458C183.057 66.3481 183.157 66.7504 183.418 67.0439C183.665 67.3374 184.06 67.4699 184.459 67.432C184.849 67.4131 185.224 67.2238 185.433 66.9019C185.514 66.7741 185.576 66.6274 185.609 66.4806L186.497 66.6652Z" fill="#E6E7EB"/>
<path d="M188.93 63.1862L189.305 67.787L188.431 67.858L188.056 63.2572L188.93 63.1862Z" fill="#E6E7EB"/>
<path d="M194.1 65.7564L193.819 62.7555L194.703 62.675L195.131 67.2711L194.361 67.3421L191.966 64.5352L192.246 67.5362L191.353 67.6166L190.926 63.0206L191.695 62.9496L194.1 65.7564Z" fill="#E6E7EB"/>
<path d="M197.715 63.2478L197.82 64.2418L199.573 64.0572L199.668 64.9234L197.915 65.108L198.019 66.102L200.158 65.8748L200.253 66.741L197.245 67.0581L196.756 62.4716L199.763 62.1544L199.858 63.0206L197.715 63.2478Z" fill="#E6E7EB"/>
<path d="M206.971 65.9458L206.092 66.0546L205.759 63.3188L204.757 66.2156L204.448 66.2534L202.78 63.6832L203.113 66.4144L202.229 66.5232L201.673 61.9414L202.552 61.8325L204.41 64.6914L205.527 61.4681L206.41 61.3592L206.971 65.9458Z" fill="#E6E7EB"/>
<path d="M211.475 64.6205L209.603 64.876L209.485 65.6144L208.591 65.7375L209.366 60.9758L210.658 60.8007L212.687 65.179L211.794 65.3021L211.475 64.6205ZM211.119 63.8395L210.117 61.7L209.741 64.0288L211.119 63.8395Z" fill="#E6E7EB"/>
<path d="M216.241 61.416C216.094 61.203 215.975 61.061 215.737 60.9663C215.576 60.9001 215.381 60.8527 215.172 60.8811C214.953 60.9048 214.759 60.99 214.635 61.0894C214.488 61.2077 214.436 61.3639 214.455 61.5059C214.469 61.5864 214.512 61.6621 214.573 61.7095C214.668 61.7852 214.892 61.8373 215.129 61.8704L215.961 61.9793C216.388 62.0408 216.64 62.126 216.873 62.2869C217.187 62.5047 217.391 62.8218 217.443 63.1957C217.505 63.5933 217.339 64.0477 217.011 64.3412C216.697 64.6299 216.284 64.7482 215.799 64.8192C215.186 64.9092 214.645 64.8287 214.198 64.4264C213.937 64.185 213.766 63.8868 213.652 63.598L214.497 63.2336C214.569 63.4513 214.678 63.6407 214.811 63.7637C215.034 63.9909 215.405 64.0524 215.714 64.0051C215.956 63.9672 216.251 63.8536 216.398 63.7022C216.526 63.5744 216.545 63.4276 216.526 63.2998C216.507 63.1815 216.445 63.0727 216.341 63.0017C216.227 62.9259 216.089 62.8833 215.904 62.8597L215.015 62.7413C214.659 62.6987 214.326 62.6088 214.074 62.4479C213.766 62.2585 213.595 61.9367 213.547 61.6195C213.471 61.1178 213.732 60.6397 214.122 60.3841C214.431 60.1806 214.759 60.1096 215.063 60.0623C215.376 60.0244 215.728 60.0197 216.056 60.1427C216.474 60.2942 216.835 60.6113 217.082 61.0468L216.241 61.416Z" fill="#E6E7EB"/>
<path d="M131.2 34.4692C131.238 34.0385 131.257 33.5983 131.257 33.1534C131.257 33.5983 131.238 34.0338 131.2 34.4692Z" fill="url(#paint0_linear)"/>
<path d="M131.029 35.752C131.105 35.3307 131.162 34.9047 131.2 34.4692C131.162 34.9 131.105 35.3307 131.029 35.752Z" fill="url(#paint1_linear)"/>
<path d="M36.1819 43.3395C34.842 44.1773 33.3929 44.892 31.8249 45.4931C30.2522 46.0943 28.3659 46.3925 26.1517 46.3925C24.2274 46.3925 22.4931 46.1369 20.9394 45.6209C19.0436 44.9961 17.4234 43.9879 16.0835 42.5963C14.3587 40.8119 13.2422 38.4026 12.7385 35.378C12.5247 34.1237 12.4202 32.7605 12.4202 31.2932C12.4202 26.4415 13.5795 22.6975 15.8934 20.0657C18.2074 17.4293 21.4193 16.1134 25.534 16.1134C26.4606 16.1134 27.3301 16.175 28.1473 16.3028C29.2401 16.4684 30.2332 16.743 31.1312 17.1311C32.6991 17.808 34.1483 18.589 35.4882 19.4788C36.3102 18.9534 37.0324 18.2387 37.6501 17.3252C38.263 16.4116 38.5719 15.3561 38.5719 14.1538C38.5719 11.8629 37.289 9.95538 34.7185 8.44545C32.1432 6.93079 28.5179 6.17346 23.8378 6.17346C21.2578 6.17346 18.806 6.50953 16.4779 7.18166C15.8364 7.36626 15.2045 7.57926 14.5821 7.81592C11.698 8.91405 9.17971 10.5186 7.02257 12.6297C5.15052 14.4568 3.61582 16.6672 2.42321 19.2611C2.23791 19.6634 2.06211 20.0752 1.89106 20.4917C0.631936 23.6252 0 27.2225 0 31.2932C0 35.6242 0.631936 39.3635 1.89106 42.5206C2.7273 44.6175 3.77261 46.4682 5.03173 48.0681C5.66367 48.8775 6.35738 49.6253 7.09859 50.3069C9.308 52.3375 11.907 53.8522 14.8909 54.8414C17.87 55.8354 21.0867 56.3324 24.5315 56.3324C27.102 56.3324 29.2639 56.1052 31.0124 55.665C32.7609 55.2201 34.1483 54.7373 35.1794 54.2166C36.5145 53.5918 37.4553 52.8203 37.997 51.9115C38.5339 50.998 38.8047 50.0182 38.8047 48.9769C38.8047 47.7746 38.5624 46.6954 38.073 45.7298C37.5836 44.7642 36.9516 43.969 36.1819 43.3395Z" fill="white"/>
<path d="M47.0579 0.0012207C45.0813 0.0012207 43.4801 0.635485 42.259 1.90401C41.0331 3.16781 40.4202 4.7014 40.4202 6.49533C40.4202 8.34606 41.0331 9.90332 42.259 11.1718C43.4801 12.4356 45.0813 13.0699 47.0579 13.0699C49.0345 13.0699 50.6357 12.4356 51.8615 11.1718C53.0827 9.90332 53.6956 8.34606 53.6956 6.49533C53.6956 4.7014 53.0827 3.16781 51.8615 1.90401C50.6357 0.635485 49.0345 0.0012207 47.0579 0.0012207Z" fill="white"/>
<path d="M51.8378 18.7262C51.833 18.7215 51.8283 18.7168 51.8235 18.712C51.814 18.7026 51.8093 18.6884 51.7998 18.6789C51.6857 18.5416 51.5575 18.4233 51.4197 18.3144C50.4171 17.5334 48.7541 17.1406 46.4402 17.1406C45.3094 17.1406 44.2831 17.2163 43.3565 17.3772C42.43 17.5334 41.7078 17.6896 41.1946 17.8458V17.8884V20.6054V20.648V29.7407V42.3644V50.0087C41.1946 52.2002 41.6983 53.6723 42.7008 54.4296C43.7034 55.1822 45.3616 55.5656 47.6756 55.5656C48.8064 55.5656 49.8374 55.4994 50.764 55.3668C51.6857 55.239 52.408 55.0923 52.9211 54.9361V45.8481V34.2042V22.7779C52.9211 20.9178 52.56 19.5688 51.8378 18.7262C51.833 18.7262 51.8378 18.7262 51.8378 18.7262Z" fill="white"/>
<path d="M88.3713 19.6208C85.3114 17.1169 80.9781 15.8625 75.3715 15.8625C73.6135 15.8625 71.9362 15.9761 70.3493 16.2128C69.1044 16.3879 67.907 16.6388 66.7667 16.9607C64.1724 17.6896 62.0486 18.6552 60.4046 19.8527C59.3735 20.5864 58.58 21.3674 58.0146 22.2005C57.4445 23.0383 57.1641 24.1317 57.1641 25.4901V31.9322V49.6679C57.1641 51.8594 57.6773 53.3315 58.7083 54.0888C59.7346 54.8414 61.4071 55.2201 63.7211 55.2201C64.8519 55.2201 65.8829 55.1538 66.8095 55.026C67.7312 54.8935 68.4535 54.7515 68.9666 54.5953V40.7077V26.8959C69.8409 26.4273 70.7911 26.0344 71.8222 25.722C72.8485 25.4096 73.9841 25.2534 75.2147 25.2534C76.127 25.2534 76.949 25.367 77.6759 25.5942C78.3839 25.8167 79.0063 26.148 79.5385 26.5835C80.617 27.4734 81.1587 28.8271 81.1587 30.6542V39.9788V49.6679C81.1587 51.8594 81.6576 53.3315 82.6601 54.0888C83.6627 54.8414 85.3209 55.2201 87.6349 55.2201C88.7657 55.2201 89.7967 55.1538 90.7233 55.026C91.6498 54.8935 92.3958 54.7515 92.9612 54.5953V30.3418C92.9612 29.3146 92.8852 28.3396 92.7331 27.4166C92.2105 24.1695 90.7565 21.5709 88.3713 19.6208Z" fill="white"/>
<path d="M130.683 25.722C130.179 24.5435 129.556 23.4643 128.81 22.4797C128.278 21.7603 127.68 21.0976 127.019 20.4823C125.451 19.0197 123.574 17.8884 121.389 17.079C119.203 16.2696 116.799 15.8625 114.176 15.8625C111.758 15.8625 109.406 16.2412 107.116 16.9985C105.757 17.4482 104.488 18.0493 103.31 18.8067C102.502 19.3179 101.742 19.9048 101.02 20.558C99.2473 22.1768 97.8314 24.2121 96.7766 26.664C95.7217 29.1158 95.1991 32.0079 95.1991 35.3496C95.1991 38.7907 95.7217 41.7917 96.7766 44.3476C97.8314 46.9036 99.2853 49.0289 101.138 50.7234C102.735 52.186 104.602 53.3362 106.731 54.1787C107.073 54.3113 107.42 54.4391 107.771 54.5574C110.342 55.4189 113.145 55.8496 116.181 55.8496C118.239 55.8496 120.13 55.7029 121.85 55.4189C123.574 55.1301 125.066 54.6852 126.326 54.0888C127.585 53.4877 128.573 52.7446 129.295 51.8594C130.017 50.9696 130.374 49.9282 130.374 48.726C130.374 47.7367 130.117 46.8232 129.604 45.9901C129.091 45.157 128.445 44.4754 127.675 43.9548C126.615 44.608 125.266 45.2091 123.631 45.7582C123.441 45.8197 123.247 45.886 123.047 45.9475C121.446 46.454 119.754 46.7474 117.973 46.8279C117.635 46.8421 117.298 46.8516 116.951 46.8516C114.585 46.8516 112.504 46.3924 110.703 45.4789C110.356 45.3038 110.028 45.105 109.724 44.8825C108.436 43.95 107.505 42.5963 106.926 40.8261C106.921 40.8071 106.911 40.7835 106.907 40.7598C111.017 40.1587 115.126 39.5528 119.236 38.9517L126.981 37.7731C128.573 37.5127 129.808 36.9637 130.683 36.1306C130.806 36.0123 130.92 35.8845 131.029 35.7519C131.105 35.3307 131.162 34.9047 131.2 34.4692C131.238 34.0385 131.257 33.5983 131.257 33.1534C131.257 33.5983 131.238 34.0385 131.2 34.4692C131.162 34.9047 131.105 35.3307 131.029 35.7519C131.671 34.9331 131.994 33.8066 131.994 32.3724C131.994 29.9773 131.557 27.7574 130.683 25.722ZM106.161 32.6753C106.427 30.1098 107.287 28.1502 108.736 26.7776C108.988 26.5362 109.254 26.3184 109.534 26.1244C110.85 25.1777 112.423 24.7044 114.252 24.7044C116.414 24.7044 118.034 25.3055 119.113 26.5078C119.522 26.9574 119.854 27.4166 120.125 27.8899C120.567 28.6756 120.823 29.4945 120.885 30.3418C115.977 31.118 111.069 31.8943 106.161 32.6753Z" fill="white"/>
<path d="M177.441 0.138489C175.465 0.138489 173.863 0.772753 172.642 2.04128C171.416 3.30508 170.803 4.83867 170.803 6.6326C170.803 8.48333 171.416 10.0406 172.642 11.3091C173.863 12.5729 175.465 13.2072 177.441 13.2072C179.418 13.2072 181.019 12.5729 182.245 11.3091C183.466 10.0406 184.079 8.48333 184.079 6.6326C184.079 4.83867 183.466 3.30508 182.245 2.04128C181.024 0.772753 179.422 0.138489 177.441 0.138489Z" fill="white"/>
<path d="M181.803 18.4517C180.8 17.6707 179.137 17.2778 176.823 17.2778C175.693 17.2778 174.666 17.3536 173.74 17.5145C172.813 17.6707 172.091 17.8269 171.578 17.9831V20.7426V29.8779V42.4969V50.1413C171.578 52.3328 172.081 53.8048 173.084 54.5622C174.087 55.3148 175.745 55.6982 178.059 55.6982C179.19 55.6982 180.221 55.6319 181.147 55.4994C182.069 55.3716 182.791 55.2248 183.304 55.0686V45.9807V34.3367V22.9105C183.304 21.0219 182.934 19.654 182.183 18.8162C182.069 18.6789 181.941 18.5606 181.803 18.4517Z" fill="#D7D8DE"/>
<path d="M165.192 31.8233C163.938 30.5974 162.379 29.504 160.526 28.5431C158.668 27.5775 156.511 26.6782 154.055 25.8451L149.821 24.4393C149.208 24.2311 148.657 24.0228 148.163 23.8145C147.312 23.4595 146.638 23.1093 146.139 22.759C145.635 22.4087 145.288 21.9543 145.113 21.3958C145.008 21.0881 144.961 20.7473 144.961 20.3782C144.961 19.1806 145.559 18.1914 146.766 17.4104C147.132 17.169 147.564 16.9654 148.058 16.8045C148.51 16.6483 149.009 16.53 149.56 16.44C150.372 16.3075 151.294 16.2412 152.33 16.2412C154.682 16.2412 156.853 16.5252 158.839 17.098C158.934 17.1264 159.029 17.1548 159.124 17.1832C160.978 17.737 162.479 18.4186 163.624 19.209C163.786 19.0812 163.947 18.944 164.099 18.7972C164.688 18.2576 165.221 17.6234 165.7 16.9039C166.304 15.9904 166.603 14.9396 166.603 13.7373C166.603 12.4877 166.209 11.3943 165.425 10.4571C164.641 9.51992 163.572 8.72946 162.213 8.07626C160.854 7.4278 159.219 6.945 157.309 6.6326C155.404 6.3202 153.323 6.164 151.076 6.164C149.194 6.164 147.436 6.2918 145.816 6.55687C145.493 6.6042 145.174 6.661 144.861 6.72727C141.825 7.3284 139.287 8.41233 137.24 9.98852C133.918 12.5398 132.26 16.0046 132.26 20.3782C132.26 22.5649 132.612 24.4299 133.315 25.9635C134.023 27.5018 135.002 28.8271 136.256 29.9489C137.249 30.834 138.408 31.6245 139.729 32.3108C139.743 32.3203 139.753 32.325 139.767 32.3298C140.1 32.5096 140.447 32.6753 140.803 32.8362C142.58 33.6456 144.571 34.3888 146.766 35.0656L150.762 36.3152C152.591 36.888 153.964 37.5506 154.881 38.308C155.794 39.0606 156.255 40.064 156.255 41.3136C156.255 42.6673 155.665 43.827 154.487 44.7879C153.314 45.7535 151.337 46.2363 148.567 46.2363C147.365 46.2363 146.224 46.1463 145.141 45.9712C143.806 45.7487 142.561 45.3937 141.392 44.9062C139.278 44.0211 137.51 43.0081 136.099 41.8579C135.106 42.4354 134.203 43.188 133.396 44.1252C132.583 45.0624 132.179 46.2363 132.179 47.6421C132.179 48.9958 132.612 50.2075 133.472 51.2725C134.336 52.3422 135.515 53.2416 137.002 53.9658C138.494 54.6994 140.257 55.258 142.295 55.6461C144.333 56.039 146.557 56.233 148.961 56.233C152.202 56.233 155.062 55.8686 157.547 55.1396C160.027 54.4107 162.118 53.393 163.819 52.0914C165.515 50.7897 166.798 49.2419 167.663 47.4433C167.981 46.7711 168.242 46.0753 168.447 45.3511C168.784 44.1347 168.955 42.8425 168.955 41.4698C168.955 39.4392 168.642 37.6311 168.014 36.0407C167.387 34.455 166.446 33.0445 165.192 31.8233Z" fill="#D7D8DE"/>
<path d="M216.977 39.5386C216.431 38.218 215.614 37.0442 214.521 36.0265C214.255 35.7804 213.975 35.539 213.68 35.3023C212.758 34.5686 211.684 33.9012 210.463 33.2954C209.96 33.0445 209.432 32.7984 208.876 32.557C207.665 32.0316 206.334 31.5346 204.88 31.0613C204.866 31.0565 204.852 31.0518 204.833 31.0471L201.151 29.8779C200.618 29.7028 200.139 29.5324 199.711 29.3573C199.293 29.1916 198.922 29.0212 198.604 28.8555C198.357 28.7277 198.143 28.6047 197.953 28.4769C197.81 28.3822 197.682 28.2781 197.573 28.1597C197.568 28.155 197.563 28.155 197.563 28.155C197.326 27.9231 197.164 27.6485 197.06 27.3409C196.969 27.0853 196.927 26.8013 196.927 26.4936C196.927 25.4949 197.449 24.6713 198.495 24.0228C198.813 23.824 199.188 23.6536 199.621 23.5163C200.015 23.3885 200.447 23.2891 200.927 23.2134C201.635 23.1045 202.433 23.0477 203.336 23.0477C205.379 23.0477 207.27 23.2844 208.995 23.7625C209.076 23.7861 209.161 23.8098 209.242 23.8335C210.853 24.2926 212.16 24.8606 213.153 25.5185C213.295 25.4144 213.433 25.2961 213.566 25.1777C214.079 24.7281 214.54 24.1979 214.958 23.6015C215.343 23.0477 215.585 22.4277 215.685 21.7414C215.728 21.4905 215.742 21.2349 215.742 20.9651C215.742 19.9238 215.4 19.015 214.716 18.234C214.036 17.453 213.105 16.795 211.922 16.2507C210.739 15.7111 209.318 15.3088 207.66 15.0484C207.171 14.968 206.662 14.9064 206.149 14.8544C205.118 14.7455 204.03 14.6792 202.894 14.665C202.681 14.6556 202.462 14.6556 202.243 14.6556C200.609 14.6556 199.079 14.7597 197.668 14.9822C197.387 15.02 197.112 15.0674 196.836 15.1242C194.195 15.6259 191.99 16.5252 190.208 17.8411C189.999 17.9973 189.79 18.1582 189.595 18.3239C189.258 18.6032 188.944 18.9014 188.654 19.2043C186.801 21.1497 185.88 23.5779 185.88 26.4936C185.88 26.9196 185.894 27.3314 185.932 27.7243C185.932 27.729 185.932 27.7337 185.932 27.7337C186.041 29.0307 186.326 30.1667 186.797 31.1417C187.414 32.4244 188.265 33.5273 189.353 34.4598C190.218 35.1982 191.225 35.8561 192.375 36.4288C192.389 36.4383 192.394 36.443 192.408 36.443C192.698 36.5945 192.997 36.7318 193.311 36.8643C193.325 36.8738 193.344 36.8785 193.358 36.8832C194.893 37.5506 196.603 38.166 198.495 38.7198L199.397 38.9896L201.968 39.7564C203.56 40.2344 204.752 40.7835 205.55 41.4177C206.344 42.0425 206.743 42.8803 206.743 43.9217C206.743 45.0482 206.23 46.0138 205.208 46.8137C204.187 47.6184 202.467 48.0207 200.062 48.0207C199.017 48.0207 198.024 47.945 197.083 47.7983C195.924 47.6137 194.841 47.3155 193.824 46.9131C193.563 46.809 193.306 46.7001 193.054 46.5913C192.532 46.3641 192.042 46.1274 191.576 45.8765C190.697 45.4127 189.913 44.9109 189.22 44.3761C188.355 44.8589 187.571 45.4837 186.868 46.2647C186.16 47.0457 185.808 48.0207 185.808 49.1946C185.808 50.3211 186.184 51.3293 186.934 52.2192C187.685 53.109 188.711 53.8569 190.004 54.4628C191.301 55.0734 192.836 55.5372 194.608 55.8638C196.38 56.1904 198.314 56.3514 200.405 56.3514C202.395 56.3514 204.22 56.1999 205.888 55.8922C205.465 55.9254 205.042 55.949 204.605 55.949C203.797 55.949 203.004 55.8828 202.239 55.7502C203.008 55.878 203.797 55.949 204.605 55.949C205.037 55.949 205.465 55.9301 205.888 55.8922C206.577 55.7692 207.237 55.6177 207.869 55.4378C209.898 54.8651 211.627 54.0841 213.058 53.0806C213.1 53.0522 213.138 53.0238 213.181 53.0002C213.186 53.0002 213.186 52.9954 213.191 52.9954C215.519 51.1447 217.163 48.5509 217.69 45.602C217.757 45.1003 217.79 44.5843 217.79 44.0589C217.795 42.3691 217.524 40.8639 216.977 39.5386Z" fill="#D7D8DE"/>
<path d="M215.756 20.9793C215.756 21.2491 215.742 21.5047 215.699 21.7555C213.903 18.2245 210.387 15.6117 206.163 14.8686C206.681 14.9206 207.185 14.9822 207.674 15.0626C209.337 15.323 210.758 15.7253 211.936 16.2649C213.119 16.8092 214.046 17.4672 214.73 18.2481C215.41 19.0244 215.756 19.9379 215.756 20.9793Z" fill="#D7D8DE"/>
<path d="M216.982 39.5481C216.436 38.2275 215.619 37.0536 214.526 36.036C214.26 35.7898 213.979 35.5484 213.685 35.3118C212.763 34.5781 211.689 33.9107 210.468 33.3048C209.964 33.054 209.437 32.8078 208.881 32.5664C207.669 32.041 206.339 31.544 204.885 31.0707C204.871 31.066 204.857 31.0612 204.838 31.0565L201.155 29.8874C200.623 29.7122 200.143 29.5418 199.716 29.3667C199.297 29.201 198.927 29.0306 198.609 28.865C198.361 28.7372 198.148 28.6141 197.958 28.4863C197.815 28.3917 197.687 28.2875 197.577 28.1692C197.573 28.1645 197.568 28.1645 197.568 28.1645C197.33 27.9325 197.169 27.658 197.064 27.3503C196.974 27.0947 196.931 26.8107 196.931 26.5031C196.931 25.5043 197.454 24.6807 198.499 24.0323C198.818 23.8335 199.193 23.6631 199.625 23.5258C200.02 23.398 200.452 23.2986 200.932 23.2229C201.64 23.114 202.438 23.0572 203.341 23.0572C205.384 23.0572 207.275 23.2939 209 23.7719C209.081 23.7956 209.166 23.8193 209.247 23.8429C210.858 24.3021 212.164 24.8701 213.157 25.528C213.3 25.4239 213.438 25.3055 213.571 25.1872C214.084 24.7375 214.545 24.2074 214.963 23.611C215.348 23.0572 215.59 22.4371 215.69 21.7508C213.894 18.2198 210.378 15.607 206.154 14.8638C205.123 14.755 204.035 14.6887 202.899 14.6745C195.938 15.0626 190.427 20.4775 190.427 27.0995C190.427 30.479 191.866 33.5415 194.199 35.7898C195.644 37.1814 197.44 38.2559 199.44 38.8901L199.402 39.0037L201.973 39.7705C203.564 40.2486 204.757 40.7977 205.555 41.4319C206.349 42.0567 206.748 42.8945 206.748 43.9359C206.748 45.0624 206.235 46.028 205.213 46.8279C204.191 47.6326 202.471 48.0349 200.067 48.0349C199.022 48.0349 198.029 47.9592 197.088 47.8125C195.929 47.6278 194.845 47.3297 193.829 46.9273C193.567 46.8232 193.311 46.7143 193.059 46.6055C192.536 46.3783 192.047 46.1416 191.581 45.8907C192.764 51.6275 198.148 55.9585 204.614 55.9585C205.047 55.9585 205.474 55.9396 205.897 55.9017C206.586 55.7786 207.247 55.6272 207.879 55.4473C209.907 54.8746 211.637 54.0936 213.067 53.0901C213.11 53.0617 213.148 53.0333 213.191 53.0096C213.195 53.0096 213.195 53.0049 213.2 53.0049C215.528 51.1542 217.172 48.5603 217.7 45.6115C217.766 45.1097 217.799 44.5938 217.799 44.0684C217.799 42.3786 217.529 40.8734 216.982 39.5481Z" fill="url(#paint2_linear)"/>
<path d="M204.614 55.9585C205.047 55.9585 205.474 55.9396 205.897 55.9017C204.234 56.2094 202.405 56.3608 200.414 56.3608C198.323 56.3608 196.39 56.1999 194.617 55.8733C192.845 55.5514 191.31 55.0828 190.013 54.4722C188.721 53.8711 187.695 53.1185 186.944 52.2286C186.198 51.3435 185.818 50.3306 185.818 49.204C185.818 48.0349 186.169 47.0551 186.877 46.2741C187.581 45.4931 188.365 44.8683 189.229 44.3855C189.918 44.9204 190.702 45.4221 191.586 45.886C192.764 51.6322 198.148 55.9585 204.614 55.9585Z" fill="#D7D8DE"/>
<path d="M190.433 27.1042C190.433 20.4823 195.945 15.0674 202.906 14.6792C202.692 14.6698 202.473 14.6698 202.255 14.6698C200.62 14.6698 199.09 14.7739 197.679 14.9964C197.399 15.0342 197.123 15.0816 196.848 15.1384C194.206 15.6401 192.001 16.5394 190.22 17.8553C190.011 18.0115 189.802 18.1724 189.607 18.3381C189.269 18.6174 188.956 18.9156 188.666 19.2185C186.813 21.1639 185.891 23.5921 185.891 26.5078C185.891 26.9338 185.905 27.3456 185.943 27.7385C185.943 27.7432 185.943 27.7479 185.943 27.7479C186.053 29.0449 186.338 30.1808 186.808 31.1559C187.426 32.4386 188.276 33.5415 189.364 34.474C190.229 35.2124 191.236 35.8703 192.386 36.443C192.401 36.4525 192.405 36.4572 192.42 36.4572C192.709 36.6087 193.009 36.746 193.322 36.8785C193.337 36.888 193.356 36.8927 193.37 36.8974C194.905 37.5648 196.615 38.1802 198.506 38.734L199.409 39.0037L199.447 38.8902C197.442 38.2559 195.65 37.1814 194.206 35.7898C191.873 33.5462 190.433 30.4838 190.433 27.1042Z" fill="#D7D8DE"/>
<path d="M176.766 17.1453C179.104 17.1453 180.781 17.5382 181.793 18.3239C181.931 18.4328 182.064 18.5511 182.178 18.6884C182.934 19.5309 183.309 20.9035 183.309 22.7969V27.1373H183.262C183.262 21.8549 178.943 17.5713 173.607 17.5713C173.079 17.5713 172.566 17.6139 172.062 17.6944C172.5 17.5902 173.032 17.4861 173.654 17.382C174.59 17.221 175.626 17.1453 176.766 17.1453Z" fill="#D7D8DE"/>
<path d="M183.262 27.1373C183.262 21.8549 178.938 17.5713 173.607 17.5713C173.079 17.5713 172.566 17.6139 172.062 17.6944C171.872 17.737 171.692 17.7843 171.535 17.8316C171.516 17.8364 171.492 17.8458 171.473 17.8506V18.1819V20.6195V21.8786V29.788V33.6267V36.4667V42.0094V42.4496V49.559C172.956 52.9623 176.372 55.3479 180.349 55.3479C181.38 55.3479 182.373 55.187 183.309 54.8935V49.5164V45.9428V44.1962V36.675V34.261V31.7902V27.1373H183.262Z" fill="url(#paint3_linear)"/>
<path d="M180.349 55.3526C181.38 55.3526 182.373 55.1917 183.309 54.8982V55.0686C182.791 55.2248 182.064 55.3716 181.133 55.4994C180.197 55.6319 179.156 55.6982 178.016 55.6982C175.678 55.6982 174.006 55.3148 172.994 54.5574C172.067 53.8616 171.564 52.5742 171.488 50.6808C171.478 50.501 171.473 50.3164 171.473 50.1223V49.5638C172.956 52.967 176.367 55.3526 180.349 55.3526Z" fill="#D7D8DE"/>
<path d="M183.205 3.14414C182.943 2.70394 182.625 2.29215 182.249 1.90401C181.024 0.635485 179.422 0.0012207 177.446 0.0012207C175.469 0.0012207 173.868 0.635485 172.647 1.90401C171.416 3.17254 170.808 4.70614 170.808 6.49533C170.808 8.34606 171.416 9.90332 172.647 11.1766C172.728 11.2618 172.808 11.3422 172.894 11.418C174.082 12.5208 175.602 13.0746 177.446 13.0746C179.422 13.0746 181.024 12.4404 182.249 11.1766C183.475 9.90332 184.084 8.34606 184.084 6.49533C184.084 5.2552 183.789 4.13341 183.205 3.14414Z" fill="#D7D8DE"/>
<path d="M166.499 13.7373C166.499 14.0592 166.48 14.3668 166.432 14.6698C164.365 10.4287 160.322 7.29053 155.466 6.40067C156.06 6.4622 156.639 6.53793 157.205 6.6326C159.115 6.945 160.749 7.42779 162.108 8.07626C163.467 8.72946 164.536 9.51992 165.32 10.4571C166.104 11.3943 166.499 12.4877 166.499 13.7373Z" fill="#D7D8DE"/>
<path d="M167.91 36.0407C167.283 34.455 166.342 33.0445 165.087 31.8233C164.783 31.5251 164.46 31.2364 164.118 30.9524C163.059 30.072 161.823 29.272 160.422 28.5431C159.842 28.2402 159.234 27.9467 158.597 27.658C157.205 27.0285 155.675 26.4321 154.002 25.8641C153.983 25.8593 153.969 25.8499 153.95 25.8451L149.717 24.4393C149.104 24.2311 148.552 24.0228 148.058 23.8145C147.578 23.6157 147.151 23.4122 146.785 23.2134C146.5 23.0619 146.253 22.9105 146.034 22.759C145.868 22.6454 145.721 22.5176 145.597 22.3803C145.592 22.3756 145.588 22.3756 145.588 22.3756C145.317 22.0963 145.127 21.7697 145.008 21.3958C144.903 21.0881 144.856 20.7473 144.856 20.3781C144.856 19.1806 145.455 18.1914 146.661 17.4104C147.027 17.169 147.46 16.9654 147.954 16.8045C148.405 16.6483 148.904 16.53 149.455 16.44C150.268 16.3075 151.19 16.2412 152.225 16.2412C154.577 16.2412 156.749 16.5252 158.735 17.098C158.83 17.1264 158.925 17.1548 159.02 17.1832C160.873 17.737 162.374 18.4186 163.519 19.209C163.681 19.0812 163.843 18.9439 163.995 18.7972C164.584 18.2576 165.116 17.6234 165.596 16.9039C166.038 16.2365 166.318 15.4934 166.432 14.6698C164.365 10.4287 160.322 7.29052 155.466 6.40066C154.278 6.26813 153.028 6.1924 151.722 6.17346C143.716 6.63733 137.377 13.1409 137.377 21.0929C137.377 25.1541 139.031 28.8319 141.715 31.5298C143.378 33.2007 145.44 34.4929 147.745 35.255L147.702 35.3922L150.657 36.3152C152.487 36.888 153.86 37.5506 154.777 38.3079C155.689 39.0605 156.15 40.064 156.15 41.3136C156.15 42.6673 155.561 43.827 154.382 44.7879C153.209 45.7535 151.232 46.2363 148.462 46.2363C147.26 46.2363 146.12 46.1463 145.036 45.9712C143.701 45.7487 142.456 45.3937 141.288 44.9062C140.988 44.7784 140.694 44.6506 140.404 44.5181C139.805 44.2435 139.24 43.9595 138.703 43.6613C140.062 50.553 146.253 55.7502 153.689 55.7502C154.188 55.7502 154.677 55.7266 155.162 55.684C155.955 55.5372 156.715 55.3526 157.442 55.1396C159.775 54.4533 161.766 53.5114 163.41 52.3091C163.458 52.276 163.505 52.2428 163.553 52.2097C163.557 52.2097 163.557 52.205 163.562 52.205C166.242 49.9803 168.128 46.8658 168.736 43.3253C168.812 42.7241 168.85 42.1041 168.85 41.4698C168.85 39.4392 168.537 37.6311 167.91 36.0407Z" fill="url(#paint4_linear)"/>
<path d="M153.689 55.7502C154.188 55.7502 154.677 55.7266 155.162 55.684C153.247 56.0532 151.147 56.233 148.857 56.233C146.452 56.233 144.229 56.039 142.19 55.6461C140.152 55.258 138.389 54.6994 136.897 53.9658C135.41 53.2416 134.232 52.3422 133.367 51.2725C132.507 50.2075 132.075 48.9958 132.075 47.6421C132.075 46.2363 132.479 45.0624 133.291 44.1252C134.099 43.188 135.002 42.4354 135.995 41.8579C136.788 42.5017 137.691 43.1028 138.703 43.6613C140.062 50.553 146.253 55.7502 153.689 55.7502Z" fill="#D7D8DE"/>
<path d="M137.379 21.0929C137.379 13.1409 143.717 6.63733 151.723 6.17347C151.476 6.164 151.224 6.164 150.972 6.164C149.091 6.164 147.333 6.2918 145.713 6.55687C145.39 6.6042 145.071 6.661 144.758 6.72727C141.721 7.3284 139.184 8.41233 137.136 9.98852C136.894 10.1779 136.656 10.3672 136.433 10.566C136.044 10.9021 135.682 11.2571 135.35 11.6215C133.221 13.955 132.157 16.8755 132.157 20.3782C132.157 20.8893 132.176 21.3816 132.219 21.8549C132.219 21.8597 132.219 21.8644 132.219 21.8691C132.342 23.4264 132.675 24.7896 133.212 25.9635C133.92 27.5018 134.898 28.8271 136.153 29.9489C137.146 30.834 138.305 31.6245 139.626 32.3108C139.64 32.3203 139.65 32.325 139.664 32.3298C139.997 32.5096 140.344 32.6753 140.7 32.8362C140.719 32.8457 140.738 32.8552 140.757 32.8599C142.52 33.6598 144.492 34.3982 146.663 35.0656L147.703 35.3922L147.746 35.255C145.442 34.4929 143.38 33.2007 141.717 31.5298C139.032 28.8319 137.379 25.1541 137.379 21.0929Z" fill="#D7D8DE"/>
<path d="M120.804 30.3512C115.858 31.137 110.912 31.918 105.966 32.7037C105.952 32.8646 105.937 33.0208 105.923 33.1817C105.714 35.8703 105.99 38.4263 106.574 40.8024C110.793 40.1823 115.017 39.5623 119.236 38.9469L126.772 37.8015C125.679 34.7958 123.038 32.5712 120.804 30.3512Z" fill="url(#paint5_linear)"/>
<path d="M127.765 23.682C127.072 22.9105 123.831 19.3132 118.586 19.2327C113.587 19.157 109.691 22.3141 107.833 25.3907C107.634 25.7221 107.462 26.0487 107.306 26.38C107.382 26.0771 107.453 25.7789 107.529 25.4901C106.165 27.658 104.521 30.8956 103.714 35.0751C101.946 44.1962 105.353 51.5565 106.731 54.1788C107.073 54.3113 107.42 54.4391 107.771 54.5574C110.342 55.4189 113.145 55.8496 116.181 55.8496C118.239 55.8496 120.13 55.7029 121.85 55.4189C123.574 55.1302 125.066 54.6852 126.326 54.0888C127.585 53.4877 128.573 52.7446 129.295 51.8594C130.017 50.9696 130.374 49.9282 130.374 48.726C130.374 47.7367 130.117 46.8232 129.604 45.9901C129.091 45.1571 128.445 44.4755 127.675 43.9548C126.615 44.608 125.266 45.2091 123.632 45.7582C123.441 45.8197 123.247 45.886 123.047 45.9475C121.446 46.454 119.754 46.7475 117.973 46.8279C117.635 46.8421 117.298 46.8516 116.951 46.8516C114.585 46.8516 112.504 46.3925 110.703 45.4789C110.356 45.3038 110.028 45.105 109.724 44.8825C108.437 43.9501 107.505 42.5963 106.926 40.8261C106.593 39.7611 106.27 38.4026 106.123 36.8028C105.975 35.2313 106.037 33.8586 106.161 32.7652H106.151C106.156 32.7368 106.156 32.7132 106.161 32.6848C106.161 32.6848 106.161 32.6848 106.161 32.68V32.6848C106.165 32.6848 106.17 32.6185 106.184 32.5049C106.203 32.344 106.232 32.1688 106.251 32.0032C106.431 30.8482 106.983 28.4579 108.736 26.7776C108.988 26.5362 109.254 26.3185 109.534 26.1244C110.85 25.1777 112.423 24.7044 114.252 24.7044C116.414 24.7044 118.034 25.3055 119.113 26.5078C119.522 26.9575 119.854 27.4166 120.125 27.8899C120.567 28.6757 120.823 29.4945 120.885 30.3418C120.857 30.3465 120.833 30.3512 120.804 30.356C123.038 32.5759 125.675 34.8006 126.767 37.8062L126.976 37.7731C128.568 37.5128 129.804 36.9637 130.678 36.1306C130.801 36.0123 130.915 35.8845 131.025 35.752C131.177 34.9094 131.253 34.0432 131.253 33.1534C131.258 31.9416 131.162 27.4497 127.765 23.682Z" fill="url(#paint6_linear)"/>
<path d="M130.683 25.7173C131.557 27.7526 131.994 29.9726 131.994 32.3676C131.994 33.8018 131.671 34.9284 131.029 35.7472C131.181 34.9047 131.257 34.0385 131.257 33.1486C131.257 29.4708 129.932 26.1339 127.765 23.6773C125.893 21.5331 123.384 20.0563 120.567 19.6019C120.439 19.5829 120.305 19.564 120.163 19.5451C119.935 19.5119 119.707 19.493 119.474 19.4788C119.393 19.4693 119.308 19.4646 119.222 19.4646C119.051 19.4551 118.88 19.4504 118.704 19.4504C118.524 19.4504 118.343 19.4551 118.167 19.4646C118.011 19.4693 117.854 19.4788 117.702 19.4977C117.298 19.5309 116.87 19.5877 116.424 19.6776C116.424 19.6776 116.253 19.7107 115.977 19.777C115.706 19.8433 114.865 20.1083 114.723 20.1604C110.917 21.5615 107.79 25.6179 107.79 25.6179C104.873 29.4046 104.06 33.319 103.714 35.0704C102.013 43.7323 105.206 51.1447 106.731 54.174C104.602 53.3315 102.735 52.1813 101.138 50.7187C99.2853 49.0242 97.8314 46.8989 96.7766 44.3429C95.7217 41.7869 95.1991 38.786 95.1991 35.3449C95.1991 32.0032 95.7217 29.1111 96.7766 26.6592C97.8314 24.2074 99.2473 22.1721 101.02 20.5533C101.742 19.9001 102.502 19.3131 103.31 18.8019C104.488 18.0446 105.757 17.4435 107.116 16.9938C109.406 16.2365 111.758 15.8578 114.176 15.8578C116.799 15.8578 119.203 16.2649 121.389 17.0743C123.574 17.8837 125.451 19.0149 127.019 20.4775C127.68 21.0929 128.278 21.7555 128.81 22.475C129.556 23.4595 130.179 24.5387 130.683 25.7173Z" fill="white"/>
<path d="M92.9612 32.6753V31.0754C92.6951 29.1016 92.0584 27.1562 90.747 25.3055C89.2456 23.1944 87.3783 21.9354 86.0527 21.2112C84.2281 20.2456 77.8232 17.15 70.7056 19.3747C62.4809 21.9496 58.2142 30.0956 57.2924 37.3613C61.2598 37.366 65.042 37.3944 68.9666 37.6121V35.7898V26.8912C69.8409 26.4226 70.7912 26.0297 71.8222 25.7173C71.8412 25.7126 71.8602 25.7078 71.8792 25.7031C71.941 25.6842 72.0028 25.6652 72.0645 25.651C73.0243 25.3812 74.0791 25.2487 75.2147 25.2487C76.127 25.2487 76.949 25.3623 77.6759 25.5895C78.0275 25.7031 78.3601 25.8404 78.6737 26.006H78.6785C78.9873 26.1717 79.2724 26.361 79.5385 26.5788C80.617 27.4686 81.1587 28.8224 81.1587 30.6494V35.9318V38.1943C84.9883 37.6737 89.1411 36.5377 92.9612 36.4193V32.6753Z" fill="url(#paint7_linear)"/>
<path d="M92.7331 27.4166C92.8852 28.3396 92.9612 29.3146 92.9612 30.3418V31.0754C92.6951 29.1016 92.0584 27.1562 90.747 25.3055C89.2456 23.1945 87.3783 21.9354 86.0526 21.2112C84.2281 20.2456 77.8232 17.15 70.7056 19.3747C62.0153 22.0963 57.7438 31.0376 57.1641 38.5872V31.9322V27.9088V25.4901C57.1641 24.1317 57.4445 23.0383 58.0146 22.2005C58.58 21.3674 59.3735 20.5864 60.4046 19.8527C62.0486 18.6552 64.1724 17.6896 66.7667 16.9607C67.0185 16.8897 67.2751 16.8187 67.5364 16.7571C67.85 16.6814 68.1636 16.6057 68.482 16.5394C69.0901 16.4116 69.7126 16.3027 70.3493 16.2128C71.9362 15.9761 73.6135 15.8625 75.3715 15.8625C77.3386 15.8625 79.1489 16.014 80.8023 16.3311C81.0352 16.3737 81.2632 16.4163 81.4865 16.4731C82.3988 16.6625 83.2588 16.9086 84.0713 17.2068C84.8553 17.5003 85.5965 17.8363 86.2855 18.215C87.0362 18.6268 87.7299 19.0954 88.3713 19.6208C90.7565 21.5709 92.2105 24.1695 92.7331 27.4166Z" fill="white"/>
<path d="M92.8186 39.1883C92.8804 38.644 92.9232 38.1375 92.9564 37.6689V36.4288C89.1363 36.5471 84.9836 37.6831 81.1539 38.2038V39.9835V49.6726C81.1539 49.8809 81.1587 50.0797 81.1682 50.269C81.249 52.0346 81.6956 53.2652 82.5128 53.9752C82.5603 54.0178 82.6079 54.0557 82.6554 54.0935C83.6579 54.8461 85.3162 55.2248 87.6301 55.2248C87.6348 55.2248 87.6396 55.2248 87.6443 55.2248C88.7704 55.2248 89.7967 55.1585 90.7185 55.0307C91.645 54.8982 92.391 54.7562 92.9564 54.6V54.2592V42.5206V37.6689C92.9279 38.1375 92.8804 38.644 92.8186 39.1883Z" fill="white"/>
<path d="M57.1641 38.5872V41.9904C57.2496 43.0933 57.4255 45.228 58.1762 47.4432C58.5515 48.5508 59.0694 49.6774 59.7964 50.7045C59.0694 49.6774 58.5515 48.5508 58.1762 47.4432C57.4255 45.228 57.2544 43.0933 57.1641 41.9904V44.9346V48.0254V49.6679C57.1641 51.8594 57.6773 53.3315 58.7083 54.0888C59.7346 54.8414 61.4071 55.2201 63.7211 55.2201C64.3815 55.2201 65.0087 55.1964 65.5978 55.1538C66.0207 55.1207 66.4246 55.0781 66.8095 55.026C67.5554 54.9171 68.1684 54.8035 68.6482 54.6805C68.7623 54.6568 68.8668 54.6237 68.9666 54.5953V51.0926V40.7077V40.5941V40.3906V37.6169C65.0419 37.3991 61.2598 37.366 57.2924 37.366C57.2401 37.7731 57.1926 38.1849 57.1641 38.5872ZM62.6567 53.3693C61.754 52.8392 61.008 52.1813 60.3808 51.4571C61.0033 52.186 61.754 52.8392 62.6567 53.3693Z" fill="white"/>
<path d="M46.4402 17.1453C48.7541 17.1453 50.4171 17.5382 51.4196 18.3192C51.5574 18.428 51.6857 18.5464 51.7998 18.6836C52.5505 19.5214 52.9211 20.8893 52.9211 22.7779V27.1042H52.8736C52.8736 21.8407 48.5926 17.5713 43.309 17.5713C42.7864 17.5713 42.2779 17.6139 41.7791 17.6944C42.2114 17.5902 42.7388 17.4861 43.3565 17.382C44.283 17.221 45.3093 17.1453 46.4402 17.1453Z" fill="white"/>
<path d="M52.8736 27.1042C52.8736 21.8407 48.5926 17.5713 43.309 17.5713C42.7864 17.5713 42.278 17.6139 41.7791 17.6944C41.589 17.737 41.4132 17.7843 41.2564 17.8316C41.2374 17.8364 41.2136 17.8458 41.1946 17.8506V18.1819V20.6101V21.8644V29.7454V33.5699V36.4004V41.9242V42.3644V49.4502C42.6628 52.844 46.0458 55.2201 49.9895 55.2201C51.011 55.2201 51.9946 55.0592 52.9211 54.7657V49.4076V45.8481V44.1063V36.6087V34.2042V31.7428V27.1042H52.8736Z" fill="url(#paint8_linear)"/>
<path d="M49.9895 55.2201C51.011 55.2201 51.9946 55.0592 52.9211 54.7657V54.9361C52.408 55.0923 51.6857 55.239 50.764 55.3668C49.8374 55.4994 48.8064 55.5656 47.6756 55.5656C45.3616 55.5656 43.7034 55.1822 42.7008 54.4296C41.7838 53.7386 41.2849 52.4511 41.2089 50.5673C41.1994 50.3874 41.1946 50.2028 41.1946 50.0087V49.4502C42.6628 52.844 46.0458 55.2201 49.9895 55.2201Z" fill="white"/>
<path d="M52.8166 3.14414C52.5552 2.70394 52.2369 2.29215 51.8615 1.90401C50.6357 0.635485 49.0345 0.0012207 47.0579 0.0012207C45.0813 0.0012207 43.4801 0.635485 42.259 1.90401C41.0283 3.17254 40.4202 4.70614 40.4202 6.49533C40.4202 8.34606 41.0283 9.90332 42.259 11.1766C42.3397 11.2618 42.4205 11.3422 42.506 11.418C43.6939 12.5208 45.2143 13.0746 47.0579 13.0746C49.0345 13.0746 50.6357 12.4404 51.8615 11.1766C53.0874 9.90332 53.6956 8.34606 53.6956 6.49533C53.6956 5.2552 53.401 4.13341 52.8166 3.14414Z" fill="white"/>
<path d="M33.0745 54.6331C32.7419 54.6473 32.4093 54.6568 32.0719 54.6568C20.6258 54.6568 11.2988 45.6067 10.914 34.2988C10.9045 34.0574 10.8997 33.8113 10.8997 33.5651C10.8997 28.4106 12.7575 23.6867 15.8459 20.0231L15.8934 20.0657C18.2074 17.4293 21.4193 16.1134 25.534 16.1134C26.4605 16.1134 27.3301 16.1749 28.1473 16.3027C29.2401 16.4684 30.2332 16.7429 31.1312 17.1311C31.6301 17.3488 32.1195 17.5713 32.5946 17.8079C29.5965 16.1844 26.1565 15.2614 22.5026 15.2614C22.1653 15.2614 21.8327 15.2709 21.5001 15.2851C13.0901 15.6779 5.95825 20.9556 2.9126 28.3348C1.8958 30.8056 1.33038 33.5131 1.33038 36.3531C1.33038 40.1066 2.31392 43.6329 4.04343 46.6906C4.35703 47.1687 4.68487 47.6278 5.03172 48.068C5.66366 48.8774 6.35737 49.6253 7.09858 50.3069C9.30799 52.3375 11.907 53.8521 14.8909 54.8414C17.87 55.8354 21.0867 56.3324 24.5315 56.3324C27.102 56.3324 29.2639 56.1052 31.0124 55.665C31.0219 55.665 31.0266 55.665 31.0314 55.6603C32.4331 55.3005 33.6019 54.9219 34.5427 54.5148C34.058 54.5716 33.5686 54.6095 33.0745 54.6331Z" fill="url(#paint9_linear)"/>
<path d="M38.073 45.7298C37.5836 44.7642 36.9517 43.969 36.1819 43.3394C34.842 44.1772 33.3929 44.892 31.8249 45.4931C30.2522 46.0942 28.3659 46.3924 26.1517 46.3924C26.0995 46.3924 26.0472 46.3924 25.9949 46.3877C24.1324 46.3782 22.4504 46.1226 20.9394 45.6209C19.0436 44.9961 17.4234 43.9879 16.0835 42.5963C14.3587 40.8119 13.2422 38.4026 12.7385 35.378C12.7148 35.2407 12.691 35.1035 12.6767 34.9615C12.6577 34.881 12.6482 34.8053 12.6387 34.7248C12.4914 33.6551 12.4202 32.5096 12.4202 31.2932C12.4202 26.4415 13.5795 22.6975 15.8934 20.0657L15.8459 20.0231C12.7575 23.6867 10.8997 28.4106 10.8997 33.5652C10.8997 33.8113 10.9045 34.0574 10.914 34.2988C11.2988 45.6067 20.6258 54.6568 32.072 54.6568C32.4093 54.6568 32.7419 54.6473 33.0745 54.6331C33.5687 54.6095 34.058 54.5716 34.5427 54.5148C34.766 54.4154 34.9798 54.316 35.1794 54.2166C36.5145 53.5918 37.4553 52.8203 37.997 51.9115C38.2963 51.405 38.5101 50.8796 38.6384 50.3306C38.6764 50.1886 38.7049 50.0466 38.7287 49.8998C38.7809 49.5969 38.8047 49.2892 38.8047 48.9768C38.8047 47.7746 38.5624 46.6954 38.073 45.7298Z" fill="url(#paint10_linear)"/>
<path d="M38.5291 13.4722C38.301 11.4842 37.0277 9.80392 34.7185 8.44545C32.1432 6.93079 28.5179 6.17346 23.8378 6.17346C21.2578 6.17346 18.806 6.50953 16.4779 7.18166C15.8364 7.36626 15.2045 7.57926 14.5821 7.81592C11.698 8.91405 9.17971 10.5186 7.02257 12.6297C6.5997 13.0415 6.19583 13.4722 5.81571 13.9219C4.47582 15.4697 3.34499 17.2494 2.42321 19.2611C2.23791 19.6634 2.06211 20.0752 1.89106 20.4917C1.3399 21.8739 0.902766 23.3459 0.589174 24.9079C0.199559 26.8912 0 29.0164 0 31.2932C0 35.6242 0.631936 39.3635 1.89106 42.5206C2.49924 44.04 3.21195 45.4316 4.04344 46.6907C2.31393 43.6329 1.33039 40.1066 1.33039 36.3531C1.33039 33.5131 1.89581 30.8056 2.91261 28.3349C5.95826 20.9556 13.0901 15.678 21.5001 15.2851C21.8327 15.2709 22.1653 15.2614 22.5026 15.2614C26.1565 15.2614 29.5965 16.1844 32.5946 17.808C32.6089 17.8174 32.6231 17.8222 32.6374 17.8316C33.6399 18.3334 34.5902 18.8824 35.4882 19.4788C36.3102 18.9534 37.0324 18.2387 37.6501 17.3252C38.263 16.4116 38.5719 15.3561 38.5719 14.1538C38.5719 13.9219 38.5576 13.6947 38.5291 13.4722Z" fill="white"/>
</g>
<defs>
<linearGradient id="paint0_linear" x1="131.2" y1="33.8097" x2="131.257" y2="33.8097" gradientUnits="userSpaceOnUse">
<stop stop-color="#008DBC"/>
<stop offset="1" stop-color="#0096D5"/>
</linearGradient>
<linearGradient id="paint1_linear" x1="131.029" y1="35.109" x2="131.2" y2="35.109" gradientUnits="userSpaceOnUse">
<stop stop-color="#008DBC"/>
<stop offset="1" stop-color="#0096D5"/>
</linearGradient>
<linearGradient id="paint2_linear" x1="204.019" y1="35.3268" x2="176.763" y2="33.5223" gradientUnits="userSpaceOnUse">
<stop stop-color="#DADADA"/>
<stop offset="0.474" stop-color="#A2A2A2"/>
<stop offset="1" stop-color="#575756"/>
</linearGradient>
<linearGradient id="paint3_linear" x1="183.44" y1="14.8893" x2="171.136" y2="58.9219" gradientUnits="userSpaceOnUse">
<stop offset="0.001937" stop-color="#0C414F"/>
<stop offset="0.0152" stop-color="#2F515F"/>
<stop offset="0.0334" stop-color="#516875"/>
<stop offset="0.0539" stop-color="#717F8A"/>
<stop offset="0.0761" stop-color="#8C959E"/>
<stop offset="0.1008" stop-color="#A4AAB0"/>
<stop offset="0.1286" stop-color="#B7BBBF"/>
<stop offset="0.161" stop-color="#C7C9CC"/>
<stop offset="0.2012" stop-color="#D2D3D4"/>
<stop offset="0.2575" stop-color="#D8D9D9"/>
<stop offset="0.4138" stop-color="#DADADA"/>
<stop offset="0.6362" stop-color="#D8D9D9"/>
<stop offset="0.7164" stop-color="#D2D3D4"/>
<stop offset="0.7735" stop-color="#C7C9CC"/>
<stop offset="0.8197" stop-color="#B7BBBF"/>
<stop offset="0.8593" stop-color="#A4AAB0"/>
<stop offset="0.8944" stop-color="#8C959E"/>
<stop offset="0.9261" stop-color="#717F8A"/>
<stop offset="0.9552" stop-color="#516875"/>
<stop offset="0.9812" stop-color="#2F515F"/>
<stop offset="1" stop-color="#0C414F"/>
</linearGradient>
<linearGradient id="paint4_linear" x1="148.326" y1="30.6653" x2="116.922" y2="28.586" gradientUnits="userSpaceOnUse">
<stop stop-color="#DADADA"/>
<stop offset="0.3174" stop-color="#9AA1A8"/>
<stop offset="1" stop-color="#0C414F"/>
</linearGradient>
<linearGradient id="paint5_linear" x1="115.826" y1="35.3888" x2="79.4161" y2="44.5101" gradientUnits="userSpaceOnUse">
<stop stop-color="white"/>
<stop offset="0.0353" stop-color="#EDEFF1"/>
<stop offset="0.1826" stop-color="#ADB5BE"/>
<stop offset="0.3301" stop-color="#7A8A96"/>
<stop offset="0.4749" stop-color="#536C7A"/>
<stop offset="0.6161" stop-color="#365766"/>
<stop offset="0.7528" stop-color="#214A59"/>
<stop offset="0.8831" stop-color="#124352"/>
<stop offset="1" stop-color="#0C414F"/>
</linearGradient>
<linearGradient id="paint6_linear" x1="120.028" y1="39.4863" x2="94.4731" y2="27.9859" gradientUnits="userSpaceOnUse">
<stop stop-color="white"/>
<stop offset="0.1158" stop-color="#FAFAFB"/>
<stop offset="0.246" stop-color="#E9EBEE"/>
<stop offset="0.3833" stop-color="#CFD3D9"/>
<stop offset="0.5255" stop-color="#ADB5BD"/>
<stop offset="0.6715" stop-color="#82919D"/>
<stop offset="0.8207" stop-color="#526B79"/>
<stop offset="0.9697" stop-color="#1B4756"/>
<stop offset="1" stop-color="#0C414F"/>
</linearGradient>
<linearGradient id="paint7_linear" x1="74.0578" y1="26.5729" x2="68.9132" y2="-10.565" gradientUnits="userSpaceOnUse">
<stop stop-color="white"/>
<stop offset="0.0297" stop-color="#F0F2F4"/>
<stop offset="0.179" stop-color="#AFB7BF"/>
<stop offset="0.3283" stop-color="#7B8B97"/>
<stop offset="0.4744" stop-color="#546C7A"/>
<stop offset="0.6167" stop-color="#365866"/>
<stop offset="0.7541" stop-color="#214A59"/>
<stop offset="0.8843" stop-color="#124352"/>
<stop offset="1" stop-color="#0C414F"/>
</linearGradient>
<linearGradient id="paint8_linear" x1="53.0862" y1="14.8966" x2="40.8235" y2="58.7802" gradientUnits="userSpaceOnUse">
<stop offset="0.001937" stop-color="#0C414F"/>
<stop offset="0.0152" stop-color="#315463"/>
<stop offset="0.0334" stop-color="#576F7D"/>
<stop offset="0.0539" stop-color="#7C8C98"/>
<stop offset="0.0761" stop-color="#9DA8B2"/>
<stop offset="0.1008" stop-color="#BAC1C8"/>
<stop offset="0.1286" stop-color="#D3D7DC"/>
<stop offset="0.161" stop-color="#E7E9EC"/>
<stop offset="0.2012" stop-color="#F5F6F7"/>
<stop offset="0.2575" stop-color="#FDFDFD"/>
<stop offset="0.4138" stop-color="white"/>
<stop offset="0.6362" stop-color="#FDFDFD"/>
<stop offset="0.7164" stop-color="#F5F6F7"/>
<stop offset="0.7735" stop-color="#E7E9EC"/>
<stop offset="0.8197" stop-color="#D3D7DC"/>
<stop offset="0.8593" stop-color="#BAC1C8"/>
<stop offset="0.8944" stop-color="#9DA8B2"/>
<stop offset="0.9261" stop-color="#7C8C98"/>
<stop offset="0.9552" stop-color="#576F7D"/>
<stop offset="0.9812" stop-color="#315463"/>
<stop offset="1" stop-color="#0C414F"/>
</linearGradient>
<linearGradient id="paint9_linear" x1="19.8789" y1="34.1113" x2="-5.85221" y2="13.1951" gradientUnits="userSpaceOnUse">
<stop stop-color="white"/>
<stop offset="0.5595" stop-color="#CCCBCB"/>
<stop offset="1" stop-color="#9D9D9C"/>
</linearGradient>
<linearGradient id="paint10_linear" x1="31.2528" y1="32.8083" x2="9.29229" y2="49.9694" gradientUnits="userSpaceOnUse">
<stop stop-color="white"/>
<stop offset="0.159" stop-color="#FCFCFC"/>
<stop offset="0.3412" stop-color="#F2F2F2"/>
<stop offset="0.5346" stop-color="#E1E1E1"/>
<stop offset="0.7359" stop-color="#C9C8C8"/>
<stop offset="0.9415" stop-color="#A8A8A8"/>
<stop offset="1" stop-color="#9D9D9C"/>
</linearGradient>
<clipPath id="clip0">
<rect width="217.799" height="68.9976" fill="white" transform="translate(0 0.0012207)"/>
</clipPath>
</defs>
</svg>
