<svg width="79" height="79" viewBox="0 0 79 79" fill="none" xmlns="http://www.w3.org/2000/svg">
<path d="M79 67.3824V0H0V67.3824H32.5294V74.3529H27.8824V79H51.1176V74.3529H46.4706V67.3824H79ZM74.3529 4.64706V53.4412H4.64706V4.64706H74.3529ZM4.64706 58.0882H74.3529V62.7353H4.64706V58.0882ZM41.8235 74.3529H37.1765V67.3824H41.8235V74.3529Z" fill="#4A25AA"/>
<path d="M9.2941 11.6177H13.9412V25.5589H9.2941V11.6177Z" fill="#4A25AA"/>
<path d="M32.5294 11.6177H18.5882V25.5589H32.5294V11.6177ZM27.8823 20.9118H23.2353V16.2647H27.8823V20.9118Z" fill="#4A25AA"/>
<path d="M37.1765 11.6177H41.8236V25.5589H37.1765V11.6177Z" fill="#4A25AA"/>
<path d="M65.0588 11.6177H69.7059V25.5589H65.0588V11.6177Z" fill="#4A25AA"/>
<path d="M60.4118 11.6177H46.4706V25.5589H60.4118V11.6177ZM55.7647 20.9118H51.1176V16.2647H55.7647V20.9118Z" fill="#4A25AA"/>
<path d="M65.0588 32.5293H69.7059V46.4705H65.0588V32.5293Z" fill="#4A25AA"/>
<path d="M60.4118 32.5293H46.4706V46.4705H60.4118V32.5293ZM55.7647 41.8234H51.1176V37.1764H55.7647V41.8234Z" fill="#4A25AA"/>
<path d="M37.1765 32.5293H41.8236V46.4705H37.1765V32.5293Z" fill="#4A25AA"/>
<path d="M27.8824 32.5293H32.5294V46.4705H27.8824V32.5293Z" fill="#4A25AA"/>
<path d="M23.2353 32.5293H9.2941V46.4705H23.2353V32.5293ZM18.5882 41.8234H13.9412V37.1764H18.5882V41.8234Z" fill="#4A25AA"/>
</svg>
