<svg width="108" height="108" viewBox="0 0 108 108" fill="none" xmlns="http://www.w3.org/2000/svg">
<path d="M26.4925 62.3213L45.6679 81.5075L80.8651 46.3103L61.6789 27.1349L26.4925 62.3213ZM103.162 35.9855L95.0023 27.8207C92.9299 28.9531 90.5464 29.3838 88.2087 29.0482C85.871 28.7127 83.7049 27.6289 82.0347 25.9593C80.3644 24.2897 79.2799 22.124 78.9435 19.7864C78.6071 17.4488 79.0369 15.0652 80.1685 12.9923L72.0091 4.82753C70.9806 3.80791 69.591 3.23584 68.1427 3.23584C66.6945 3.23584 65.3048 3.80791 64.2763 4.82753L4.82232 64.2815C3.8027 65.31 3.23062 66.6997 3.23062 68.1479C3.23062 69.5962 3.8027 70.9858 4.82232 72.0143L12.9871 80.1683C15.0606 79.033 17.4463 78.6005 19.7864 78.9358C22.1265 79.2711 24.2947 80.3561 25.966 82.028C27.6373 83.6998 28.7215 85.8685 29.0559 88.2087C29.3903 90.5489 28.957 92.9344 27.8209 95.0075L35.9857 103.162C37.0128 104.184 38.403 104.758 39.8521 104.758C41.3012 104.758 42.6914 104.184 43.7185 103.162L103.162 43.7183C104.184 42.6912 104.758 41.3011 104.758 39.8519C104.758 38.4028 104.184 37.0127 103.162 35.9855ZM45.6679 90.2825L17.7175 62.3213L61.6843 18.3599L89.6347 46.3103L45.6679 90.2825Z" fill="#0092CB"/>
</svg>
