<svg width="97" height="97" viewBox="0 0 97 97" fill="none" xmlns="http://www.w3.org/2000/svg">
<path d="M23.7942 55.9738L41.0166 73.2058L72.6289 41.5935L55.3968 24.3712L23.7942 55.9738ZM92.6545 32.3203L85.3262 24.9871C83.4648 26.0042 81.3241 26.391 79.2245 26.0896C77.1249 25.7882 75.1794 24.8149 73.6793 23.3153C72.1792 21.8157 71.2051 19.8706 70.903 17.7711C70.6008 15.6716 70.9868 13.5308 72.0032 11.669L64.6749 4.33583C63.7511 3.42006 62.503 2.90625 61.2023 2.90625C59.9015 2.90625 58.6534 3.42006 57.7297 4.33583L4.33116 57.7343C3.41539 58.6581 2.90158 59.9062 2.90158 61.2069C2.90158 62.5077 3.41539 63.7558 4.33116 64.6795L11.6644 72.003C13.5267 70.9833 15.6694 70.5949 17.7711 70.8961C19.8728 71.1972 21.8203 72.1716 23.3213 73.6732C24.8224 75.1748 25.7961 77.1226 26.0965 79.2245C26.3969 81.3263 26.0077 83.4689 24.9873 85.3308L32.3205 92.6543C33.243 93.5724 34.4916 94.0879 35.7931 94.0879C37.0946 94.0879 38.3432 93.5724 39.2657 92.6543L92.6545 39.2655C93.5726 38.343 94.0881 37.0945 94.0881 35.7929C94.0881 34.4914 93.5726 33.2428 92.6545 32.3203ZM41.0166 81.0871L15.913 55.9738L55.4017 16.4899L80.5053 41.5935L41.0166 81.0871Z" fill="#D6001C"/>
</svg>
