<svg width="93" height="93" viewBox="0 0 93 93" fill="none" xmlns="http://www.w3.org/2000/svg">
<g clip-path="url(#clip0)">
<path d="M79.1136 4.32443H65.6775C59.4785 1.45991 52.8614 0.00195312 46.0013 0.00195312C39.1407 0.00195312 32.5215 1.45991 26.3231 4.32443H12.8864C12.2364 4.32443 11.7105 4.85165 11.7105 5.50038V14.8901C3.51433 23.6359 -1 35.0169 -1 47.0009C-1 58.9853 3.51433 70.3658 11.7105 79.1121V88.5011C11.7105 89.1498 12.2364 89.6771 12.8864 89.6771H26.3231C32.5215 92.5409 39.1407 93.9995 46.0013 93.9995C52.8617 93.9995 59.4801 92.5412 65.6799 89.6771H79.116C79.7647 89.6771 80.2919 89.1498 80.2919 88.5011V79.1121C88.4857 70.3658 92.9998 58.9853 92.9998 47.0009C92.9998 35.0158 88.4857 23.6359 80.2895 14.8903V5.50059C80.2897 4.85056 79.7638 4.32443 79.1136 4.32443ZM14.0624 6.67632H26.5677H65.4345H77.9416V15.3457V34.8159H14.0634V15.3457L14.0624 6.67632ZM77.9379 87.3265H65.4343H26.5664H14.0621V78.6571V37.1678H77.9376V78.6571V87.3265H77.9379Z" fill="#00AF66"/>
<path d="M29.4425 31.7486C35.112 31.7486 39.7252 27.1349 39.7252 21.4647C39.7252 15.7938 35.112 11.1821 29.4425 11.1821C23.7724 11.1821 19.1599 15.794 19.1599 21.4647C19.1599 27.1349 23.7724 31.7486 29.4425 31.7486ZM29.4425 13.5351C33.8161 13.5351 37.3731 17.0921 37.3731 21.4658C37.3731 25.8388 33.8172 29.3978 29.4425 29.3978C25.0684 29.3978 21.5118 25.8401 21.5118 21.4658C21.5118 17.0921 25.0684 13.5351 29.4425 13.5351Z" fill="#00AF66"/>
<path d="M27.1119 25.64C27.341 25.8697 27.6426 25.9845 27.9433 25.9845C28.2441 25.9845 28.5457 25.8697 28.7748 25.64L34.3664 20.0483C34.8263 19.5886 34.8263 18.8456 34.3664 18.3855C33.9065 17.9255 33.1645 17.9255 32.7035 18.3855L27.9436 23.1454L25.8926 21.0949C25.4327 20.635 24.6908 20.635 24.2297 21.0949C23.7705 21.5531 23.7705 22.2979 24.2297 22.7572L27.1119 25.64Z" fill="#00AF66"/>
<path d="M42.1231 20.3932H72.0971C72.7449 20.3932 73.273 19.8662 73.273 19.2175C73.273 18.5687 72.7447 18.0415 72.0971 18.0415H42.1231C41.4737 18.0415 40.9471 18.5687 40.9471 19.2175C40.9471 19.8662 41.4737 20.3932 42.1231 20.3932Z" fill="#00AF66"/>
<path d="M42.1231 25.4088H72.0971C72.7449 25.4088 73.273 24.8816 73.273 24.2329C73.273 23.5835 72.7447 23.0571 72.0971 23.0571H42.1231C41.4737 23.0571 40.9471 23.5835 40.9471 24.2329C40.9471 24.8816 41.4737 25.4088 42.1231 25.4088Z" fill="#00AF66"/>
<path d="M72.0971 41.6167H20.3358C19.686 41.6167 19.1599 42.1437 19.1599 42.7924C19.1599 43.4418 19.686 43.9684 20.3358 43.9684H72.0969C72.7456 43.9684 73.2728 43.4418 73.2728 42.7924C73.2731 42.1437 72.7447 41.6167 72.0971 41.6167Z" fill="#00AF66"/>
<path d="M72.0971 48.5342H20.3358C19.686 48.5342 19.1599 49.0603 19.1599 49.7101C19.1599 50.358 19.686 50.8861 20.3358 50.8861H72.0969C72.7456 50.8861 73.2728 50.3578 73.2728 49.7101C73.2731 49.0603 72.7447 48.5342 72.0971 48.5342Z" fill="#00AF66"/>
<path d="M72.0971 55.4497H20.3358C19.686 55.4497 19.1599 55.9769 19.1599 56.6257C19.1599 57.2766 19.686 57.8014 20.3358 57.8014H72.0969C72.7456 57.8014 73.2728 57.2766 73.2728 56.6257C73.2731 55.9769 72.7447 55.4497 72.0971 55.4497Z" fill="#00AF66"/>
<path d="M38.5493 62.5977H20.796C20.1472 62.5977 19.62 63.1247 19.62 63.7734V81.5274C19.62 82.1774 20.1472 82.7033 20.796 82.7033H38.5493C39.1993 82.7033 39.7252 82.1774 39.7252 81.5274V63.7736C39.7252 63.1236 39.1993 62.5977 38.5493 62.5977Z" fill="#00AF66"/>
<path d="M72.0971 62.5977H42.1231C41.4737 62.5977 40.9471 63.1247 40.9471 63.7734C40.9471 64.4234 41.4735 64.9493 42.1231 64.9493H72.0971C72.7449 64.9493 73.273 64.4234 73.273 63.7734C73.273 63.1247 72.7447 62.5977 72.0971 62.5977Z" fill="#00AF66"/>
<path d="M72.0971 68.8242H42.1231C41.4737 68.8242 40.9471 69.3501 40.9471 69.9999C40.9471 70.6478 41.4735 71.1759 42.1231 71.1759H72.0971C72.7449 71.1759 73.273 70.6476 73.273 69.9999C73.273 69.3501 72.7447 68.8242 72.0971 68.8242Z" fill="#00AF66"/>
</g>
<defs>
<clipPath id="clip0">
<rect width="93" height="93" fill="white"/>
</clipPath>
</defs>
</svg>
