<svg width="97" height="97" viewBox="0 0 97 97" fill="none" xmlns="http://www.w3.org/2000/svg">
<path d="M84.4452 33.0093C84.4452 26.4935 80.3759 20.9104 74.6453 18.6674C74.3083 10.4754 67.5383 3.91458 59.2651 3.91458C57.5184 3.91458 55.8032 4.21553 54.1878 4.78231C53.7691 4.3637 53.3273 3.96704 52.8634 3.59519C49.9731 1.27669 46.3382 0 42.628 0C36.0353 0 30.3403 3.91699 27.7478 9.54575C20.2776 10.5979 14.5121 17.0325 14.5121 24.7883C14.5121 26.3201 14.7448 27.8345 15.1884 29.2809C13.53 31.4117 12.5547 34.0788 12.5547 36.9245C12.5547 40.734 14.2739 44.1487 16.9768 46.4356L23.6627 97H73.3374L80.4294 43.3648C82.9222 40.6284 84.4452 36.9937 84.4452 33.0093ZM19.1401 36.9245C19.1401 34.0836 21.1576 31.7142 23.8383 31.17C22.1509 29.5656 21.0975 27.3006 21.0975 24.7883C21.0975 19.9241 25.041 15.9806 29.9054 15.9806C30.9361 15.9806 31.9243 16.159 32.8436 16.4846C32.8432 16.4468 32.8414 16.4095 32.8414 16.3719C32.8414 10.9669 37.2229 6.58539 42.628 6.58539C47.2566 6.58539 51.1319 9.79973 52.1507 14.1175C53.7529 11.9253 56.3421 10.5002 59.2651 10.5002C64.1299 10.5002 68.0731 14.4437 68.0731 19.3079C68.0731 21.3193 67.3978 23.1722 66.263 24.6546C67.1397 24.3622 68.0766 24.2013 69.0519 24.2013C73.9165 24.2013 77.8598 28.1451 77.8598 33.0095C77.8598 36.2504 76.1081 39.0806 73.5014 40.6101H20.442C19.6283 39.6021 19.1401 38.3204 19.1401 36.9245ZM43.8289 90.4146L40.2952 47.1953H56.7047L53.171 90.4146H43.8289ZM23.7202 47.1953H33.6879L37.2216 90.4146H29.4348L23.7202 47.1953ZM59.7785 90.4146L63.3123 47.1953H73.2799L67.5653 90.4146H59.7785Z" fill="#00AF66"/>
<path d="M32.0365 28.5366C33.855 28.5366 35.3292 27.0624 35.3292 25.2439C35.3292 23.4254 33.855 21.9512 32.0365 21.9512C30.218 21.9512 28.7438 23.4254 28.7438 25.2439C28.7438 27.0624 30.218 28.5366 32.0365 28.5366Z" fill="#00AF66"/>
<path d="M47.4024 35.122C49.2209 35.122 50.6951 33.6478 50.6951 31.8293C50.6951 30.0108 49.2209 28.5366 47.4024 28.5366C45.5839 28.5366 44.1097 30.0108 44.1097 31.8293C44.1097 33.6478 45.5839 35.122 47.4024 35.122Z" fill="#00AF66"/>
<path d="M58.3781 24.1464C60.1966 24.1464 61.6707 22.6722 61.6707 20.8537C61.6707 19.0352 60.1966 17.561 58.3781 17.561C56.5595 17.561 55.0854 19.0352 55.0854 20.8537C55.0854 22.6722 56.5595 24.1464 58.3781 24.1464Z" fill="#00AF66"/>
</svg>
