<svg width="106" height="92" viewBox="0 0 106 92" fill="none" xmlns="http://www.w3.org/2000/svg">
<path d="M103.279 0H2.72099C1.53954 0 0.581451 0.958084 0.581451 2.13953V74.8837C0.581451 76.0652 1.53954 77.0233 2.72099 77.0233H38.0233V81.3023H31.6047C30.4233 81.3023 29.4652 82.2604 29.4652 83.4419V89.8605C29.4652 91.0419 30.4233 92 31.6047 92H74.3954C75.5769 92 76.5349 91.0419 76.5349 89.8605V83.4419C76.5349 82.2604 75.5769 81.3023 74.3954 81.3023H67.9768V77.0233H103.279C104.461 77.0233 105.419 76.0652 105.419 74.8837V2.13953C105.419 0.958084 104.461 0 103.279 0ZM101.14 4.27907V59.907H4.86052V4.27907H101.14ZM48.721 81.3023V77.0233H57.2791V81.3023H48.721ZM44.4419 81.3023H42.3024V77.0233H44.4419V81.3023ZM72.2559 87.7209H33.7442V85.5814H53.0001H72.2559V87.7209ZM61.5582 81.3023V77.0233H63.6977V81.3023H61.5582ZM101.14 72.7442H4.86052V64.1861H101.14V72.7442Z" fill="#D6001C"/>
<path d="M9.1396 57.7673H96.8605C98.042 57.7673 99.0001 56.8092 99.0001 55.6278V8.55799C99.0001 7.37654 98.042 6.41846 96.8605 6.41846H9.1396C7.95814 6.41846 7.00006 7.37654 7.00006 8.55799V55.6278C7.00006 56.8092 7.95814 57.7673 9.1396 57.7673ZM11.2791 10.6975H94.721V53.4882H11.2791V10.6975Z" fill="#D6001C"/>
<path d="M56.2093 66.3257H49.7907V70.6048H56.2093V66.3257Z" fill="#D6001C"/>
<path d="M14.4884 16.0463V34.2323H18.7675V18.1858H24.1163V13.9067H16.628C15.4465 13.9067 14.4884 14.8648 14.4884 16.0463Z" fill="#D6001C"/>
<path d="M18.7675 37.4419H14.4884V41.721H18.7675V37.4419Z" fill="#D6001C"/>
</svg>
